<?xml version="1.0" encoding="utf-8"?>
<!-- Generator: Adobe Illustrator 26.3.1, SVG Export Plug-In . SVG Version: 6.00 Build 0)  -->
<svg version="1.1" id="Layer_1" xmlns="http://www.w3.org/2000/svg" xmlns:xlink="http://www.w3.org/1999/xlink" x="0px" y="0px"
	 viewBox="0 0 101.01 82" style="enable-background:new 0 0 101.01 82;" xml:space="preserve">
<style type="text/css">
	.st0{fill:#585754;}
</style>
<g>
	<g>
		<rect x="15.01" class="st0" width="6.19" height="54.69"/>
	</g>
	<g>
		<g>
			<g>
				<g>
					<g>
						<g>
							<path class="st0" d="M77.01,20.62C66.7,10.3,49.91,10.3,39.61,20.6c-10.32,10.32-10.32,27.1,0,37.42
								c9.44,9.44,24.29,10.24,34.65,2.4l3.12,3.12l5.15-5.16l-3.12-3.13C87.25,44.91,86.45,30.05,77.01,20.62z M44.06,53.57
								c-7.87-7.87-7.87-20.67,0-28.53c7.85-7.87,20.65-7.85,28.51,0.02c7.87,7.87,7.89,20.66,0.02,28.52
								C64.72,61.44,51.92,61.44,44.06,53.57z"/>
						</g>
					</g>
				</g>
			</g>
		</g>
	</g>
	<g>
		<g>
			<g>
				<g>
					<path class="st0" d="M77.74,67.34l14.02,14.02c0.86,0.86,2.26,0.86,3.12,0l5.49-5.49c0.85-0.85,0.85-2.26,0-3.11L86.34,58.74
						L77.74,67.34z"/>
				</g>
			</g>
		</g>
	</g>
	<g>
		<path class="st0" d="M27.38,39.31c0-7.99,3.01-15.51,8.47-21.28V0h-10.7v54.69h6.3C28.8,50.06,27.38,44.8,27.38,39.31z"/>
	</g>
	<g>
		<g>
			<path class="st0" d="M45.99,10.91V0h-5.63v14.1C42.13,12.84,44.01,11.77,45.99,10.91z"/>
		</g>
	</g>
	<g>
		<g>
			<path class="st0" d="M58.31,8.37c2.79,0,5.51,0.37,8.13,1.08V0H48.99v9.79C51.96,8.86,55.1,8.37,58.31,8.37z"/>
		</g>
	</g>
	<g>
		<g>
			<path class="st0" d="M75.82,13.79V0h-5.63v10.72C72.17,11.54,74.05,12.57,75.82,13.79z"/>
		</g>
	</g>
	<g>
		<g>
			<g>
				<path class="st0" d="M68.15,45.22c0,1.18-0.22,2.25-0.66,3.19c-0.44,0.94-1.03,1.75-1.78,2.44c-0.74,0.69-1.61,1.23-2.58,1.63
					c-0.98,0.4-2.02,0.65-3.13,0.72v2.7c0,0-0.37,0.63-1.27,0.63c-0.91,0-1.36-0.63-1.36-0.63v-2.7c-1.64-0.16-3.24-0.63-4.77-1.44
					c-1.53-0.8-2.91-1.97-4.13-3.5l3.27-2.93c0.54,0.84,1.24,1.66,2.13,2.44c0.87,0.79,2.04,1.27,3.5,1.46v-8.67
					c-1.04-0.42-1.88-0.77-2.53-1.06c-0.65-0.28-1.07-0.47-1.26-0.54c-0.69-0.35-1.34-0.84-1.95-1.49
					c-0.61-0.65-1.11-1.41-1.49-2.27c-0.39-0.86-0.6-1.8-0.63-2.81c-0.04-1.01,0.21-2.04,0.74-3.07c0.65-1.29,1.58-2.33,2.78-3.07
					c1.21-0.74,2.65-1.19,4.34-1.35v-2.3c0,0,0.43-0.5,1.34-0.51c0.9-0.01,1.3,0.51,1.3,0.51v2.35c1.15,0.16,2.3,0.47,3.44,0.95
					c1.15,0.48,2.29,1.18,3.39,2.1l-2.12,3.5c-0.69-0.72-1.43-1.28-2.21-1.66c-0.78-0.39-1.62-0.67-2.5-0.87v8.03
					c0.95,0.46,1.91,0.89,2.87,1.3c0.95,0.4,1.82,0.89,2.61,1.46c0.78,0.57,1.43,1.29,1.92,2.12
					C67.91,42.74,68.15,43.85,68.15,45.22z M57.37,28.81c-1,0.12-1.87,0.52-2.62,1.21c-0.74,0.69-1.15,1.45-1.23,2.29
					c-0.03,0.61,0.05,1.11,0.26,1.49c0.2,0.38,0.49,0.71,0.86,0.95C55,35,55.42,35.21,55.9,35.38c0.48,0.17,0.96,0.37,1.47,0.6
					V28.81z M64.14,45.45c0-0.42-0.13-0.83-0.38-1.21c-0.24-0.38-0.57-0.72-0.97-1.03c-0.4-0.3-0.85-0.59-1.32-0.86
					c-0.48-0.27-0.97-0.5-1.46-0.69v7.46c0.46-0.08,0.94-0.21,1.44-0.4c0.49-0.19,0.95-0.43,1.35-0.71c0.4-0.29,0.73-0.64,0.97-1.07
					C64.01,46.52,64.14,46.02,64.14,45.45z"/>
			</g>
		</g>
	</g>
	<g>
		<rect class="st0" width="11.05" height="66.57"/>
	</g>
</g>
</svg>
