<?xml version="1.0" encoding="utf-8"?>
<!-- Generator: Adobe Illustrator 26.3.1, SVG Export Plug-In . SVG Version: 6.00 Build 0)  -->
<svg version="1.1" id="Layer_1" xmlns="http://www.w3.org/2000/svg" xmlns:xlink="http://www.w3.org/1999/xlink" x="0px" y="0px"
	 viewBox="0 0 86.45 103" style="enable-background:new 0 0 86.45 103;" xml:space="preserve">
<style type="text/css">
	.st0{fill:#585754;}
</style>
<g>
	<g>
		<g>
			<g>
				<g>
					<g>
						<g>
							<path class="st0" d="M53.25,1.01C53.53,0.45,53.24,0,52.62,0H34.1c-0.61,0-0.9,0.45-0.62,1.01l1.29,11.59
								c0.28,0.56,1.01,1.01,1.63,1.01h13.94c0.62,0,1.35-0.46,1.63-1.01L53.25,1.01z"/>
						</g>
					</g>
				</g>
			</g>
			<g>
				<g>
					<g>
						<g>
							<g>
								<g>
									<path class="st0" d="M50.36,20.98c-0.03,0.35,0.22,1.46,0.27,2.17c0.08,1.04-0.06,2.06-0.38,2.98
										c-0.87,2.45-3.8,4.64-7.04,4.64c-4.5,0-8.16-3.66-8.16-8.16c0-3.66,2.48-6.86,5.93-7.85l-0.67-2.49h6.19l-1.01,4.88
										c-0.29,0.86-1.14,1.38-2.29,1.38c-2.25,0-4.08,1.83-4.08,4.08c0,2.25,1.83,4.08,4.08,4.08c2.25,0,4.08-1.84,4.08-4.08
										c0-0.19,0.02-0.51-0.01-0.75c-0.12-1.13,0.46-1.96,1.07-2.31c0.43-0.25,0.84-0.4,1.36-0.4c0.28,0,1.28,0.06,1.38,0.81
										C51.13,20.22,50.43,20.16,50.36,20.98z"/>
								</g>
							</g>
						</g>
					</g>
				</g>
			</g>
			<g>
				<g>
					<g>
						<path class="st0" d="M9.73,45.28c-0.38,0.21-0.87,0.07-1.08-0.31l-0.27-0.5c-0.22-0.38-0.07-0.87,0.31-1.09l34.14-18.94
							c0.38-0.21,0.87-0.08,1.08,0.31l0.28,0.5c0.21,0.38,0.07,0.87-0.31,1.08L9.73,45.28z"/>
					</g>
				</g>
			</g>
			<g>
				<g>
					<g>
						<path class="st0" d="M76.61,45.28c0.39,0.21,0.87,0.07,1.09-0.31l0.27-0.5c0.22-0.38,0.08-0.87-0.31-1.09L43.52,24.45
							c-0.38-0.21-0.87-0.08-1.09,0.31l-0.28,0.5c-0.21,0.38-0.07,0.87,0.31,1.08L76.61,45.28z"/>
					</g>
				</g>
			</g>
		</g>
		<g>
			<g>
				<rect x="0.28" y="43.66" class="st0" width="86.17" height="8.87"/>
			</g>
		</g>
		<g>
			<g>
				<rect y="94.13" class="st0" width="86.17" height="8.87"/>
			</g>
		</g>
		<g>
			<g>
				<rect x="6.09" y="48.1" class="st0" width="5.54" height="42.69"/>
			</g>
		</g>
		<g>
			<g>
				<rect x="75.1" y="48.1" class="st0" width="5.54" height="42.7"/>
			</g>
		</g>
	</g>
	<g>
		<g>
			<rect x="40.59" y="48.1" class="st0" width="5.54" height="42.69"/>
		</g>
	</g>
	<g>
		<g>
			<rect x="23.7" y="48.1" class="st0" width="5.54" height="42.69"/>
		</g>
	</g>
	<g>
		<g>
			<rect x="57.49" y="48.1" class="st0" width="5.54" height="42.69"/>
		</g>
	</g>
	<g>
		<path class="st0" d="M20.78,84.12c0,1.67-1.35,3.02-3.02,3.02s-3.02-1.35-3.02-3.02c0-1.67,1.35-3.02,3.02-3.02
			S20.78,82.45,20.78,84.12z"/>
	</g>
	<g>
		<path class="st0" d="M38.03,84.05c0,1.67-1.35,3.02-3.02,3.02s-3.02-1.35-3.02-3.02c0-1.67,1.35-3.02,3.02-3.02
			S38.03,82.38,38.03,84.05z"/>
	</g>
	<g>
		<path class="st0" d="M54.93,84.12c0,1.67-1.35,3.02-3.02,3.02s-3.02-1.35-3.02-3.02c0-1.67,1.35-3.02,3.02-3.02
			S54.93,82.45,54.93,84.12z"/>
	</g>
	<g>
		<path class="st0" d="M72.18,84.05c0,1.67-1.35,3.02-3.02,3.02s-3.02-1.35-3.02-3.02c0-1.67,1.35-3.02,3.02-3.02
			S72.18,82.38,72.18,84.05z"/>
	</g>
	<g>
		<path class="st0" d="M20.78,59.61c0,1.67-1.35,3.02-3.02,3.02c-1.67,0-3.02-1.35-3.02-3.02c0-1.67,1.35-3.02,3.02-3.02
			C19.43,56.59,20.78,57.95,20.78,59.61z"/>
	</g>
	<g>
		<path class="st0" d="M38.03,59.54c0,1.67-1.35,3.02-3.02,3.02s-3.02-1.35-3.02-3.02c0-1.67,1.35-3.02,3.02-3.02
			S38.03,57.88,38.03,59.54z"/>
	</g>
	<g>
		<path class="st0" d="M54.93,59.61c0,1.67-1.35,3.02-3.02,3.02s-3.02-1.35-3.02-3.02c0-1.67,1.35-3.02,3.02-3.02
			S54.93,57.95,54.93,59.61z"/>
	</g>
	<g>
		<path class="st0" d="M72.18,59.54c0,1.67-1.35,3.02-3.02,3.02s-3.02-1.35-3.02-3.02c0-1.67,1.35-3.02,3.02-3.02
			S72.18,57.88,72.18,59.54z"/>
	</g>
</g>
</svg>
