<?xml version="1.0" encoding="utf-8"?>
<!-- Generator: Adobe Illustrator 26.3.1, SVG Export Plug-In . SVG Version: 6.00 Build 0)  -->
<svg version="1.1" id="Layer_1" xmlns="http://www.w3.org/2000/svg" xmlns:xlink="http://www.w3.org/1999/xlink" x="0px" y="0px"
	 viewBox="0 0 72.36 100" style="enable-background:new 0 0 72.36 100;" xml:space="preserve">
<style type="text/css">
	.st0{fill:#585754;}
	.st1{fill:#FFFFFF;}
</style>
<g>
	<g>
		<g>
			<g>
				<g>
					<g>
						<g>
							<path class="st0" d="M63.56,17.55h-8.32v5.74h8.32c1.68,0,3.05,1.37,3.05,3.05v64.87c0,1.68-1.37,3.05-3.05,3.05H8.79
								c-1.68,0-3.05-1.37-3.05-3.05V26.34c0-1.68,1.37-3.05,3.05-3.05H17v-5.74H8.79C3.94,17.55,0,21.49,0,26.34v64.87
								C0,96.06,3.94,100,8.79,100h54.77c4.85,0,8.79-3.94,8.79-8.79V26.34C72.36,21.49,68.41,17.55,63.56,17.55z"/>
						</g>
					</g>
				</g>
			</g>
			<g>
				<g>
					<path class="st0" d="M36.18,17.29c-4.77,0-8.64-3.88-8.64-8.64c0-4.77,3.88-8.64,8.64-8.64c4.77,0,8.64,3.88,8.64,8.64
						C44.82,13.41,40.94,17.29,36.18,17.29z M36.18,4.76c-2.14,0-3.88,1.74-3.88,3.88c0,2.14,1.74,3.88,3.88,3.88
						c2.14,0,3.88-1.74,3.88-3.88C40.06,6.5,38.32,4.76,36.18,4.76z"/>
				</g>
			</g>
		</g>
	</g>
	<g>
		<rect x="13.99" y="30.13" class="st1" width="44.37" height="57.29"/>
		<path class="st0" d="M59.94,89H12.41V28.55h47.53V89z M15.57,85.84h41.22V31.71H15.57V85.84z"/>
	</g>
	<g>
		<g>
			<path class="st0" d="M49.33,8.64h-7.9c0,2.91-2.35,5.26-5.26,5.26c-2.91,0-5.26-2.35-5.26-5.26h-7.9c-1.1,0-2,0.9-2,2V21.4
				c0,1.1,0.9,2,2,2h26.32c1.1,0,2-0.9,2-2V10.65C51.34,9.54,50.44,8.64,49.33,8.64z"/>
		</g>
	</g>
	<g>
		<g>
			<g>
				<g>
					<path class="st1" d="M31.42,47.26c0,0.67-0.55,1.22-1.22,1.22h-6.84c-0.67,0-1.22-0.55-1.22-1.22v-6.84
						c0-0.67,0.55-1.22,1.22-1.22h6.84c0.67,0,1.22,0.55,1.22,1.22V47.26z"/>
				</g>
			</g>
		</g>
		<g>
			<g>
				<g>
					<path class="st0" d="M30.2,49.4h-6.84c-1.18,0-2.13-0.96-2.13-2.13v-6.84c0-1.18,0.96-2.13,2.13-2.13h6.84
						c1.18,0,2.13,0.96,2.13,2.13v6.84C32.33,48.44,31.38,49.4,30.2,49.4z M23.36,40.12c-0.16,0-0.3,0.14-0.3,0.3v6.84
						c0,0.17,0.14,0.3,0.3,0.3h6.84c0.17,0,0.31-0.14,0.31-0.3v-6.84c0-0.17-0.14-0.3-0.31-0.3H23.36z"/>
				</g>
			</g>
		</g>
	</g>
	<g>
		<g>
			<g>
				<g>
					<path class="st1" d="M31.42,62.32c0,0.67-0.55,1.22-1.22,1.22h-6.84c-0.67,0-1.22-0.55-1.22-1.22v-6.84
						c0-0.67,0.55-1.22,1.22-1.22h6.84c0.67,0,1.22,0.55,1.22,1.22V62.32z"/>
				</g>
			</g>
		</g>
		<g>
			<g>
				<g>
					<path class="st0" d="M30.2,64.45h-6.84c-1.18,0-2.13-0.96-2.13-2.13v-6.84c0-1.17,0.96-2.13,2.13-2.13h6.84
						c1.18,0,2.13,0.96,2.13,2.13v6.84C32.33,63.49,31.38,64.45,30.2,64.45z M23.36,55.17c-0.16,0-0.3,0.14-0.3,0.31v6.84
						c0,0.17,0.14,0.31,0.3,0.31h6.84c0.17,0,0.31-0.14,0.31-0.31v-6.84c0-0.17-0.14-0.31-0.31-0.31H23.36z"/>
				</g>
			</g>
		</g>
	</g>
	<g>
		<g>
			<g>
				<g>
					<path class="st1" d="M31.42,77.36c0,0.67-0.55,1.22-1.22,1.22h-6.84c-0.67,0-1.22-0.55-1.22-1.22v-6.84
						c0-0.67,0.55-1.22,1.22-1.22h6.84c0.67,0,1.22,0.55,1.22,1.22V77.36z"/>
				</g>
			</g>
		</g>
		<g>
			<g>
				<g>
					<path class="st0" d="M30.2,79.5h-6.84c-1.18,0-2.13-0.96-2.13-2.13v-6.84c0-1.18,0.96-2.13,2.13-2.13h6.84
						c1.18,0,2.13,0.96,2.13,2.13v6.84C32.33,78.54,31.38,79.5,30.2,79.5z M23.36,70.22c-0.16,0-0.3,0.14-0.3,0.3v6.84
						c0,0.17,0.14,0.31,0.3,0.31h6.84c0.17,0,0.31-0.14,0.31-0.31v-6.84c0-0.16-0.14-0.3-0.31-0.3H23.36z"/>
				</g>
			</g>
		</g>
	</g>
	<g>
		<g>
			<g>
				<path class="st0" d="M23.63,43.45c0.21,0.24,2.02,2.28,2.39,2.62c0.38,0.34,0.68,0.3,1.27-0.15c0.6-0.45,8.27-6.59,9.1-7.19
					c0.82-0.6,0.19-1.12-1.98-0.15c-2.17,0.97-7.3,4.57-7.3,4.57s-1.27-0.98-1.54-1.2C24.42,40.98,22.84,42.53,23.63,43.45z"/>
			</g>
		</g>
	</g>
	<g>
		<g>
			<g>
				<path class="st0" d="M23.63,58.51c0.21,0.24,2.02,2.28,2.39,2.62c0.38,0.34,0.68,0.3,1.27-0.15c0.6-0.45,8.27-6.59,9.1-7.19
					c0.82-0.6,0.19-1.12-1.98-0.15c-2.17,0.97-7.3,4.57-7.3,4.57s-1.27-0.98-1.54-1.2C24.42,56.03,22.84,57.59,23.63,58.51z"/>
			</g>
		</g>
	</g>
	<g>
		<g>
			<g>
				<path class="st0" d="M23.63,73.55c0.21,0.24,2.02,2.28,2.39,2.62c0.38,0.34,0.68,0.3,1.27-0.15c0.6-0.45,8.27-6.59,9.1-7.19
					c0.82-0.6,0.19-1.12-1.98-0.15c-2.17,0.97-7.3,4.57-7.3,4.57s-1.27-0.98-1.54-1.2C24.42,71.08,22.84,72.63,23.63,73.55z"/>
			</g>
		</g>
	</g>
	<g>
		<g>
			<rect x="38.78" y="56.44" class="st0" width="12.18" height="4.91"/>
		</g>
	</g>
	<g>
		<g>
			<rect x="38.78" y="71.49" class="st0" width="12.18" height="4.91"/>
		</g>
	</g>
	<g>
		<g>
			<rect x="38.78" y="41.39" class="st0" width="12.18" height="4.91"/>
		</g>
	</g>
</g>
</svg>
