<?xml version="1.0" encoding="utf-8"?>
<!-- Generator: Adobe Illustrator 26.3.1, SVG Export Plug-In . SVG Version: 6.00 Build 0)  -->
<svg version="1.1" id="Layer_1" xmlns="http://www.w3.org/2000/svg" xmlns:xlink="http://www.w3.org/1999/xlink" x="0px" y="0px"
	 viewBox="0 0 84.24 88" style="enable-background:new 0 0 84.24 88;" xml:space="preserve">
<style type="text/css">
	.st0{fill:#585754;}
	.st1{fill:#FFFFFF;}
</style>
<g>
	<g>
		<rect y="70.97" class="st0" width="48.19" height="7.23"/>
	</g>
	<g>
		<g>
			<path class="st1" d="M64.57,74.59c0,5.09-4.13,9.22-9.22,9.22c-5.1,0-9.22-4.13-9.22-9.22c0-5.09,4.13-9.22,9.22-9.22
				C60.44,65.37,64.57,69.5,64.57,74.59z"/>
		</g>
		<g>
			<path class="st0" d="M55.35,88c-7.39,0-13.41-6.02-13.41-13.41c0-7.4,6.02-13.41,13.41-13.41c7.4,0,13.41,6.01,13.41,13.41
				C68.76,81.98,62.74,88,55.35,88z M55.35,69.55c-2.78,0-5.04,2.26-5.04,5.04c0,2.78,2.26,5.04,5.04,5.04
				c2.78,0,5.04-2.26,5.04-5.04C60.39,71.81,58.13,69.55,55.35,69.55z"/>
		</g>
	</g>
	<g>
		
			<rect x="32.97" y="33.02" transform="matrix(0.1737 -0.9848 0.9848 0.1737 15.5607 91.8078)" class="st0" width="59.04" height="7.23"/>
	</g>
	<g>
		<g>
			<rect x="3.35" y="2.44" class="st1" width="37.05" height="26.71"/>
			<path class="st0" d="M42.84,31.6H0.91V0h41.94V31.6z M5.79,26.71h32.17V4.88H5.79V26.71z"/>
		</g>
	</g>
	<g>
		<g>
			<rect x="3.35" y="37.74" class="st1" width="37.05" height="26.71"/>
			<path class="st0" d="M42.84,66.89H0.91V35.3h41.94V66.89z M5.79,62.01h32.17V40.18H5.79V62.01z"/>
		</g>
	</g>
	<g>
		<g>
			<rect x="16.56" y="2.44" class="st0" width="10.63" height="9.94"/>
		</g>
	</g>
	<g>
		<g>
			<rect x="16.56" y="37.74" class="st0" width="10.63" height="9.94"/>
		</g>
	</g>
	<g>
		<path class="st0" d="M84.24,7.99c0,1.99-1.76,3.62-3.91,3.62l-12.53,0c-2.15,0-3.91-1.63-3.91-3.62c0-1.99,1.76-3.62,3.91-3.62
			h12.53C82.48,4.37,84.24,6,84.24,7.99z"/>
	</g>
	<g>
		<polygon class="st0" points="11.33,78.2 11.33,88 7.23,88 0,78.2 		"/>
	</g>
</g>
</svg>
