<?xml version="1.0" encoding="utf-8"?>
<!-- Generator: Adobe Illustrator 26.3.1, SVG Export Plug-In . SVG Version: 6.00 Build 0)  -->
<svg version="1.1" id="Layer_1" xmlns="http://www.w3.org/2000/svg" xmlns:xlink="http://www.w3.org/1999/xlink" x="0px" y="0px"
	 viewBox="0 0 134.55 80" style="enable-background:new 0 0 134.55 80;" xml:space="preserve">
<style type="text/css">
	.st0{fill:#585754;}
	.st1{fill:#FFFFFF;}
</style>
<g>
	<g>
		<g>
			<g>
				<g>
					<g>
						<g>
							<g>
								<g>
									<path class="st0" d="M38.13,57.77c-6.14,0-11.12,4.97-11.12,11.11c0,6.14,4.98,11.12,11.12,11.12
										c6.14,0,11.11-4.97,11.11-11.12C49.24,62.75,44.26,57.77,38.13,57.77z M38.13,73.63c-2.62,0-4.74-2.12-4.74-4.75
										c0-2.62,2.12-4.74,4.74-4.74c2.62,0,4.75,2.12,4.75,4.74C42.87,71.51,40.75,73.63,38.13,73.63z"/>
								</g>
							</g>
						</g>
					</g>
				</g>
			</g>
		</g>
		<g>
			<g>
				<g>
					<g>
						<g>
							<g>
								<path class="st0" d="M113.78,57.77c-6.14,0-11.11,4.97-11.11,11.11c0,6.14,4.97,11.12,11.11,11.12
									c6.14,0,11.12-4.97,11.12-11.12C124.9,62.75,119.92,57.77,113.78,57.77z M113.78,73.63c-2.62,0-4.74-2.12-4.74-4.75
									c0-2.62,2.12-4.74,4.74-4.74c2.62,0,4.75,2.12,4.75,4.74C118.52,71.51,116.4,73.63,113.78,73.63z"/>
							</g>
						</g>
					</g>
				</g>
			</g>
		</g>
		<g>
			<g>
				<g>
					<g>
						<g>
							<g>
								<g>
									<path class="st0" d="M131.49,48.34h-76V72.4h10.94c-0.26-1.13-0.41-2.3-0.41-3.51c0-8.48,6.89-15.37,15.38-15.37
										c8.49,0,15.38,6.89,15.38,15.37c0,0.11-0.01,0.21-0.01,0.32h1.68c0-0.11-0.02-0.21-0.02-0.32
										c0-8.48,6.89-15.37,15.38-15.37c8.49,0,15.38,6.89,15.38,15.37c0,1.21-0.17,2.38-0.42,3.51h2.71
										c1.68,0,3.05-1.38,3.05-3.05V51.4C134.55,49.72,133.18,48.34,131.49,48.34z"/>
								</g>
							</g>
						</g>
					</g>
				</g>
			</g>
		</g>
		<g>
			<g>
				<g>
					<g>
						<g>
							<g>
								<path class="st0" d="M81.36,57.77c-6.14,0-11.11,4.97-11.11,11.11c0,6.14,4.97,11.12,11.11,11.12
									c6.14,0,11.12-4.97,11.12-11.12C92.48,62.75,87.5,57.77,81.36,57.77z M81.36,73.63c-2.62,0-4.74-2.12-4.74-4.75
									c0-2.62,2.12-4.74,4.74-4.74c2.62,0,4.74,2.12,4.74,4.74C86.1,71.51,83.98,73.63,81.36,73.63z"/>
							</g>
						</g>
					</g>
				</g>
			</g>
		</g>
		<g>
			<g>
				<g>
					<g>
						<path class="st0" d="M56.2,55.96V20.89H32.62c-1.31,0.01-4-0.12-5.5,1.98L16.24,38.1L3.75,50.63v13.96H1.08
							C0.49,64.59,0,65.08,0,65.67v5.65c0,0.59,0.49,1.08,1.08,1.08H22.8c-0.26-1.14-0.41-2.3-0.41-3.51
							c0-8.67,7.06-15.74,15.75-15.74c8.67,0,15.73,7.06,15.73,15.74c0,1.21-0.15,2.38-0.41,3.51h10.6V55.96H56.2z M43.94,37.74
							c0,1.25-1.03,2.29-2.29,2.29H24.56c-1.27,0-1.46-0.92-0.78-1.98c0,0,5.55-8.72,6.22-9.59c0,0,0.58-1.01,1.58-1.48
							c0.99-0.46,1.96-0.29,1.96-0.29h8.11c1.27,0,2.29,1.02,2.29,2.29V37.74z"/>
					</g>
				</g>
			</g>
		</g>
	</g>
	<g>
		<g>
			<g>
				<g>
					<path class="st0" d="M82.68,1.58v17.24c0,0.87-0.7,1.57-1.57,1.57H63.87c-0.87,0-1.57-0.71-1.57-1.57V1.58
						C62.3,0.71,63,0,63.87,0h17.24C81.98,0,82.68,0.71,82.68,1.58z"/>
				</g>
			</g>
		</g>
	</g>
	<g>
		<g>
			<g>
				<g>
					<path class="st0" d="M82.68,25.25v17.24c0,0.87-0.7,1.57-1.57,1.57H63.87c-0.87,0-1.57-0.7-1.57-1.57V25.25
						c0-0.87,0.7-1.57,1.57-1.57h17.24C81.98,23.68,82.68,24.38,82.68,25.25z"/>
				</g>
			</g>
		</g>
	</g>
	<g>
		<g>
			<g>
				<g>
					<path class="st0" d="M106.36,25.25v17.24c0,0.87-0.71,1.57-1.57,1.57H87.55c-0.87,0-1.57-0.7-1.57-1.57V25.25
						c0-0.87,0.71-1.57,1.57-1.57h17.24C105.66,23.68,106.36,24.38,106.36,25.25z"/>
				</g>
			</g>
		</g>
	</g>
	<g>
		<g>
			<rect x="70.4" y="2.54" class="st1" width="4.19" height="6.81"/>
		</g>
	</g>
	<g>
		<g>
			<rect x="70.4" y="26.22" class="st1" width="4.19" height="6.81"/>
		</g>
	</g>
	<g>
		<g>
			<rect x="94.07" y="26.22" class="st1" width="4.19" height="6.81"/>
		</g>
	</g>
	<g>
		<g>
			<g>
				<g>
					<path class="st0" d="M130.04,25.25v17.24c0,0.87-0.71,1.57-1.57,1.57h-17.24c-0.87,0-1.57-0.7-1.57-1.57V25.25
						c0-0.87,0.71-1.57,1.57-1.57h17.24C129.33,23.68,130.04,24.38,130.04,25.25z"/>
				</g>
			</g>
		</g>
	</g>
	<g>
		<g>
			<rect x="117.75" y="26.22" class="st1" width="4.19" height="6.81"/>
		</g>
	</g>
	<g>
		<g>
			<g>
				<g>
					<path class="st0" d="M106.35,1.58v17.24c0,0.87-0.7,1.57-1.57,1.57H87.54c-0.87,0-1.57-0.7-1.57-1.57V1.58
						c0-0.87,0.7-1.57,1.57-1.57h17.24C105.65,0,106.35,0.71,106.35,1.58z"/>
				</g>
			</g>
		</g>
	</g>
	<g>
		<g>
			<rect x="94.07" y="2.54" class="st1" width="4.19" height="6.81"/>
		</g>
	</g>
</g>
</svg>
