<?xml version="1.0" encoding="utf-8"?>
<!-- Generator: Adobe Illustrator 26.3.1, SVG Export Plug-In . SVG Version: 6.00 Build 0)  -->
<svg version="1.1" id="Layer_1" xmlns="http://www.w3.org/2000/svg" xmlns:xlink="http://www.w3.org/1999/xlink" x="0px" y="0px"
	 viewBox="0 0 105.28 82" style="enable-background:new 0 0 105.28 82;" xml:space="preserve">
<style type="text/css">
	.st0{fill:#585754;}
</style>
<g>
	<g>
		<g>
			<g>
				<path class="st0" d="M51.01,55.47H40.4V37.9c0-0.37-0.3-0.68-0.67-0.68H12.91c-0.37,0-0.67,0.31-0.67,0.68v17.57H1.63
					c-1.73-0.01-2.16,1.01-0.92,2.24l23.39,23.37c1.2,1.23,3.23,1.23,4.44,0l23.39-23.37C53.16,56.48,52.75,55.47,51.01,55.47z"/>
			</g>
		</g>
	</g>
	<g>
		<g>
			<g>
				<g>
					<g>
						<g>
							<g>
								<g>
									<path class="st0" d="M12.24,13.08c0-0.37,0.3-0.67,0.67-0.67h26.82c0.37,0,0.67,0.31,0.67,0.67v5.32
										c0,0.37-0.3,0.67-0.67,0.67H12.91c-0.37,0-0.67-0.3-0.67-0.67V13.08z"/>
								</g>
							</g>
						</g>
					</g>
				</g>
			</g>
		</g>
		<g>
			<g>
				<g>
					<g>
						<g>
							<g>
								<g>
									<path class="st0" d="M12.24,25.49c0-0.37,0.3-0.67,0.67-0.67h26.82c0.37,0,0.67,0.3,0.67,0.67v5.32
										c0,0.37-0.3,0.67-0.67,0.67H12.91c-0.37,0-0.67-0.3-0.67-0.67V25.49z"/>
								</g>
							</g>
						</g>
					</g>
				</g>
			</g>
		</g>
	</g>
	<g>
		<g>
			<g>
				<path class="st0" d="M103.65,26.53h-10.6V44.1c0,0.37-0.3,0.68-0.67,0.68H65.55c-0.37,0-0.67-0.31-0.67-0.68V26.53H54.27
					c-1.73,0.01-2.16-1.01-0.92-2.24L76.75,0.92c1.2-1.23,3.23-1.23,4.44,0l23.39,23.37C105.8,25.52,105.39,26.53,103.65,26.53z"/>
			</g>
		</g>
	</g>
	<g>
		<g>
			<g>
				<g>
					<g>
						<g>
							<g>
								<g>
									<path class="st0" d="M64.88,68.92c0,0.37,0.3,0.67,0.67,0.67h26.82c0.37,0,0.67-0.31,0.67-0.67V63.6
										c0-0.37-0.3-0.67-0.67-0.67H65.55c-0.37,0-0.67,0.3-0.67,0.67V68.92z"/>
								</g>
							</g>
						</g>
					</g>
				</g>
			</g>
		</g>
		<g>
			<g>
				<g>
					<g>
						<g>
							<g>
								<g>
									<path class="st0" d="M64.88,56.51c0,0.37,0.3,0.67,0.67,0.67h26.82c0.37,0,0.68-0.3,0.68-0.67v-5.32
										c0-0.37-0.31-0.67-0.68-0.67H65.55c-0.37,0-0.67,0.3-0.67,0.67V56.51z"/>
								</g>
							</g>
						</g>
					</g>
				</g>
			</g>
		</g>
	</g>
</g>
</svg>
