<?xml version="1.0" encoding="utf-8"?>
<!-- Generator: Adobe Illustrator 26.3.1, SVG Export Plug-In . SVG Version: 6.00 Build 0)  -->
<svg version="1.1" id="Layer_1" xmlns="http://www.w3.org/2000/svg" xmlns:xlink="http://www.w3.org/1999/xlink" x="0px" y="0px"
	 viewBox="0 0 124.53 74" style="enable-background:new 0 0 124.53 74;" xml:space="preserve">
<style type="text/css">
	.st0{fill:#585754;}
	.st1{fill:#FFFFFF;}
</style>
<g>
	<g>
		<g>
			<g>
				<g>
					<g>
						<path class="st0" d="M42.83,69.21c0,0.78-0.55,1.37-1.23,1.31L1.23,67.07C0.55,67.01,0,66.33,0,65.55v-0.84
							c0-0.77,0.56-1.41,1.23-1.41H41.6c0.68,0,1.23,0.63,1.23,1.41V69.21z"/>
					</g>
				</g>
			</g>
			<g>
				<g>
					<g>
						<rect x="41" y="44.93" class="st0" width="11.22" height="13.16"/>
					</g>
				</g>
			</g>
			<g>
				<g>
					<g>
						<path class="st0" d="M76.29,43.44H59.72c-2.05,0-2.6,0.3-2.12-1.7l1.79-7.37h9.48L76.29,43.44z"/>
					</g>
				</g>
			</g>
		</g>
		<g>
			<g>
				<rect x="36.64" y="13.51" class="st0" width="6.19" height="52.5"/>
			</g>
		</g>
		<g>
			<g>
				<rect x="2.22" y="2" class="st1" width="28.26" height="23.71"/>
				<path class="st0" d="M32.48,27.71H0.22V0h32.26V27.71z M4.22,23.71h24.26V4H4.22V23.71z"/>
			</g>
		</g>
		<g>
			<g>
				<rect x="2.22" y="33.62" class="st1" width="28.26" height="23.71"/>
				<path class="st0" d="M32.48,59.33H0.22V31.62h32.26V59.33z M4.22,55.33h24.26V35.62H4.22V55.33z"/>
			</g>
		</g>
		<g>
			<g>
				<rect x="12.3" y="2" class="st1" width="8.11" height="8.82"/>
				<path class="st0" d="M22.41,12.82H10.3V0h12.11V12.82z M14.3,8.82h4.11V4H14.3V8.82z"/>
			</g>
		</g>
		<g>
			<g>
				<rect x="12.3" y="33.62" class="st1" width="8.11" height="8.83"/>
				<path class="st0" d="M22.41,44.45H10.3V31.62h12.11V44.45z M14.3,40.45h4.11v-4.83H14.3V40.45z"/>
			</g>
		</g>
	</g>
	<g>
		<g>
			<g>
				<path class="st1" d="M76.29,64.13c0,4-3.25,7.25-7.25,7.25c-4,0-7.25-3.25-7.25-7.25c0-4,3.25-7.25,7.25-7.25
					C73.04,56.88,76.29,60.13,76.29,64.13z"/>
			</g>
			<g>
				<g>
					<path class="st0" d="M69.04,74c-5.44,0-9.87-4.43-9.87-9.87c0-5.44,4.43-9.87,9.87-9.87s9.87,4.43,9.87,9.87
						C78.91,69.57,74.48,74,69.04,74z M69.04,59.5c-2.55,0-4.63,2.08-4.63,4.63c0,2.55,2.08,4.63,4.63,4.63
						c2.55,0,4.63-2.08,4.63-4.63C73.67,61.58,71.59,59.5,69.04,59.5z"/>
				</g>
			</g>
		</g>
	</g>
	<g>
		<g>
			<g>
				<path class="st1" d="M113.46,64.13c0,4-3.25,7.25-7.25,7.25c-4,0-7.25-3.25-7.25-7.25c0-4,3.25-7.25,7.25-7.25
					C110.21,56.88,113.46,60.13,113.46,64.13z"/>
			</g>
			<g>
				<g>
					<path class="st0" d="M106.21,74c-5.44,0-9.87-4.43-9.87-9.87c0-5.44,4.43-9.87,9.87-9.87s9.87,4.43,9.87,9.87
						C116.08,69.57,111.65,74,106.21,74z M106.21,59.5c-2.55,0-4.63,2.08-4.63,4.63c0,2.55,2.08,4.63,4.63,4.63
						c2.55,0,4.63-2.08,4.63-4.63C110.84,61.58,108.76,59.5,106.21,59.5z"/>
				</g>
			</g>
		</g>
	</g>
	<g>
		<g>
			<path class="st0" d="M114.64,30.87H94.53V2.02H65.46c-2.33,0-4.74,1.85-5.33,4.11L49.55,46.05c-0.6,2.25-1.09,6.01-1.09,8.35
				v5.48c0,2.34,1.92,4.25,4.25,4.25h2.26c0-7.75,6.31-14.06,14.06-14.06c7.75,0,14.06,6.31,14.06,14.06h9.04
				c0-7.75,6.31-14.06,14.06-14.06s14.06,6.31,14.06,14.06h1.34c1.69-0.56,2.92-2.39,2.92-4.26V40.92L114.64,30.87z M83.38,39.76
				c0,1.02-0.98,2.04-2.11,2.04H61.92c-1.02,0-1.44-0.7-1.31-1.44l6.85-28.35c0.41-1.71,2.18-3.1,3.93-3.1h8.8
				c1.75,0,3.19,1.43,3.19,3.19V39.76z"/>
		</g>
	</g>
</g>
</svg>
