<?xml version="1.0" encoding="utf-8"?>
<!-- Generator: Adobe Illustrator 26.2.1, SVG Export Plug-In . SVG Version: 6.00 Build 0)  -->
<svg version="1.1" id="Layer_1" xmlns="http://www.w3.org/2000/svg" xmlns:xlink="http://www.w3.org/1999/xlink" x="0px" y="0px"
	 viewBox="0 0 708 474" style="enable-background:new 0 0 708 474;" xml:space="preserve">
<style type="text/css">
	.st0{fill:#141A46;}
	.st1{fill:#EC8B5E;}
</style>
<g>
	<g>
		<path d="M71.54,384.38c-0.6-6.11-2.82-10.66-6.65-13.66c-3.84-2.99-9.52-4.49-17.07-4.49c-7.07,0-12.4,1.2-15.99,3.6
			c-3.59,2.4-5.39,5.87-5.39,10.42c0,3.84,1.41,6.89,4.22,9.17c2.81,2.28,7.58,4.25,14.29,5.93c6.83,1.68,13.33,3.33,19.5,4.94
			c6.17,1.62,11.47,3.45,15.9,5.48c2.63,1.2,5.09,2.58,7.37,4.13c2.27,1.56,4.25,3.48,5.93,5.75c1.68,2.28,2.99,4.97,3.95,8.09
			c0.96,3.12,1.44,6.77,1.44,10.96c0,6.59-1.17,12.25-3.5,16.98c-2.34,4.73-5.63,8.66-9.88,11.77c-4.25,3.12-9.29,5.42-15.1,6.92
			c-5.81,1.5-12.19,2.25-19.14,2.25c-7.43,0-14.2-0.81-20.31-2.43c-6.11-1.62-11.38-4.1-15.81-7.46
			c-4.43-3.35-7.91-7.52-10.42-12.49c-2.52-4.97-3.84-10.81-3.95-17.52H25c0.24,6.11,2.72,10.93,7.46,14.47
			c4.73,3.54,11.11,5.3,19.14,5.3c7.43,0,13.15-1.47,17.16-4.4c4.01-2.93,6.02-7.1,6.02-12.49c0-1.8-0.27-3.41-0.81-4.85
			c-0.54-1.44-1.5-2.79-2.88-4.04c-1.38-1.26-3.27-2.4-5.66-3.42c-2.4-1.02-5.45-1.95-9.17-2.79c-7.43-1.68-13.69-3.14-18.78-4.4
			c-5.09-1.26-9.74-2.84-13.93-4.76c-6.47-2.88-11.41-6.62-14.83-11.23c-3.41-4.61-5.12-10.69-5.12-18.24
			c0-5.39,0.9-10.33,2.7-14.83c1.8-4.49,4.52-8.36,8.18-11.59c3.65-3.24,8.2-5.75,13.66-7.55c5.45-1.8,11.83-2.7,19.14-2.7
			c7.55,0,14.26,0.96,20.13,2.88c5.87,1.92,10.81,4.61,14.83,8.09c4.01,3.48,7.13,7.61,9.35,12.4c2.22,4.79,3.44,10.06,3.68,15.82
			H71.54z"/>
	</g>
	<g>
		<path d="M149.18,470.83c-7.19,0-13.6-1.14-19.23-3.41c-5.63-2.28-10.4-5.45-14.29-9.52c-3.89-4.07-6.86-8.99-8.9-14.74
			c-2.04-5.75-3.06-12.04-3.06-18.87c0-6.95,1.05-13.3,3.15-19.05c2.09-5.75,5.12-10.66,9.08-14.74c3.95-4.07,8.72-7.22,14.29-9.44
			c5.57-2.22,11.89-3.32,18.96-3.32c6.95,0,13.18,1.11,18.69,3.32c5.51,2.22,10.21,5.33,14.11,9.35c3.89,4.02,6.89,8.9,8.99,14.65
			c2.09,5.75,3.15,12.16,3.15,19.23c0,7.07-1.05,13.45-3.15,19.14c-2.1,5.69-5.09,10.57-8.99,14.65c-3.9,4.07-8.63,7.22-14.2,9.44
			C162.21,469.72,156.01,470.83,149.18,470.83z M149.18,451.24c14.26,0,21.39-8.99,21.39-26.96c0-17.85-7.13-26.78-21.39-26.78
			c-14.26,0-21.39,8.93-21.39,26.78C127.79,442.25,134.92,451.24,149.18,451.24z"/>
	</g>
	<g>
		<path d="M202.55,468.49V347.72h23.36v120.77H202.55z"/>
	</g>
	<g>
		<path d="M293.31,468.49v-12.4c-5.99,9.83-15.16,14.74-27.5,14.74c-4.43,0-8.48-0.78-12.13-2.34c-3.66-1.56-6.8-3.77-9.44-6.65
			c-2.64-2.88-4.7-6.29-6.2-10.24c-1.5-3.95-2.25-8.38-2.25-13.3v-58.23h23.36v54.63c0,11.02,4.97,16.53,14.92,16.53
			c5.99,0,10.51-1.89,13.57-5.66c3.06-3.77,4.58-8.6,4.58-14.47v-51.04h23.18v88.42H293.31z"/>
	</g>
	<g>
		<path d="M375.8,410.26h21.75v25.16c0,4.67-0.69,9.14-2.07,13.39c-1.38,4.25-3.54,8.03-6.47,11.32c-2.94,3.3-6.65,5.9-11.14,7.82
			c-4.49,1.91-9.86,2.88-16.08,2.88c-6.47,0-11.98-0.96-16.53-2.88c-4.55-1.92-8.3-4.49-11.23-7.73c-2.94-3.24-5.06-7.01-6.38-11.32
			c-1.32-4.31-1.98-8.86-1.98-13.66v-79.07h23v23.9h48.88v16.53h-48.88v36.3c0,5.63,1.05,9.97,3.15,13.03
			c2.09,3.05,5.54,4.58,10.33,4.58c4.67,0,8.12-1.5,10.33-4.49c2.22-2.99,3.32-7.25,3.32-12.76V410.26z"/>
	</g>
	<g>
		<path d="M407.6,369.47v-21.75h23.36v21.75H407.6z M407.6,468.49v-88.42h23.36v88.42H407.6z"/>
	</g>
	<g>
		<path d="M485.06,470.83c-7.19,0-13.6-1.14-19.23-3.41c-5.63-2.28-10.4-5.45-14.29-9.52c-3.89-4.07-6.86-8.99-8.9-14.74
			c-2.04-5.75-3.06-12.04-3.06-18.87c0-6.95,1.05-13.3,3.15-19.05c2.09-5.75,5.12-10.66,9.08-14.74c3.95-4.07,8.72-7.22,14.29-9.44
			c5.57-2.22,11.89-3.32,18.96-3.32c6.95,0,13.18,1.11,18.69,3.32c5.51,2.22,10.21,5.33,14.11,9.35c3.89,4.02,6.89,8.9,8.99,14.65
			c2.09,5.75,3.15,12.16,3.15,19.23c0,7.07-1.05,13.45-3.15,19.14c-2.1,5.69-5.09,10.57-8.99,14.65c-3.9,4.07-8.63,7.22-14.2,9.44
			C498.09,469.72,491.89,470.83,485.06,470.83z M485.06,451.24c14.26,0,21.39-8.99,21.39-26.96c0-17.85-7.13-26.78-21.39-26.78
			c-14.26,0-21.39,8.93-21.39,26.78C463.67,442.25,470.8,451.24,485.06,451.24z"/>
	</g>
	<g>
		<path d="M595.04,468.49v-53.55c0-6.83-1.14-11.44-3.41-13.84c-2.28-2.4-6.17-3.59-11.68-3.59c-12.1,0-18.15,6.77-18.15,20.31
			v50.68h-23.36v-88.42h22.28v12.94c2.75-5.03,6.41-8.83,10.96-11.41c4.55-2.58,10.42-3.86,17.61-3.86c4.19,0,8.09,0.63,11.68,1.89
			c3.59,1.26,6.68,3.14,9.26,5.66c2.57,2.52,4.61,5.6,6.11,9.26c1.5,3.66,2.25,7.88,2.25,12.67v61.28H595.04z"/>
	</g>
	<g>
		<path d="M682.02,406.85c-0.6-4.31-2.16-7.34-4.67-9.08c-2.52-1.73-6.47-2.61-11.86-2.61c-4.43,0-7.85,0.57-10.24,1.71
			c-2.4,1.14-3.59,3.03-3.59,5.66c0,2.64,1.2,4.65,3.59,6.02c2.39,1.38,5.99,2.73,10.78,4.04c5.03,1.44,9.82,2.73,14.38,3.86
			c4.55,1.14,8.56,2.37,12.04,3.68c4.67,1.92,8.27,4.52,10.78,7.82c2.52,3.3,3.77,7.82,3.77,13.57c0,9.23-3.27,16.42-9.79,21.57
			c-6.53,5.15-16.15,7.73-28.85,7.73c-13.66,0-24.11-2.88-31.36-8.63c-7.25-5.75-10.99-13.12-11.23-22.1h24.08
			c0,4.2,1.62,7.43,4.85,9.7c3.23,2.28,7.73,3.42,13.48,3.42c4.19,0,7.85-0.69,10.96-2.07c3.11-1.38,4.67-3.74,4.67-7.1
			c0-3.11-1.41-5.33-4.22-6.65c-2.82-1.32-6.14-2.45-9.97-3.41c-7.43-1.8-13.42-3.42-17.97-4.85c-4.56-1.44-8.39-3.17-11.5-5.21
			c-4.2-2.63-7.1-5.63-8.72-8.98c-1.62-3.35-2.43-7.01-2.43-10.96c0-3.71,0.66-7.19,1.98-10.42c1.32-3.24,3.47-6.02,6.47-8.36
			c2.99-2.34,6.86-4.16,11.59-5.48c4.73-1.32,10.45-1.98,17.16-1.98c12.82,0,22.25,2.46,28.3,7.37c6.05,4.91,9.37,12.16,9.98,21.75
			H682.02z"/>
	</g>
</g>
<g>
	<path class="st0" d="M84.94,117.58L77.62,93.7H34.91l-8.19,23.89H1.08L42.4,1.82h28.07l40.8,115.77H84.94z M56.18,27.8H56
		L41.18,73.82h29.46L56.18,27.8z"/>
	<path class="st0" d="M169.68,117.58l-0.17-10.46c-5.23,8.49-13.19,12.73-23.89,12.73c-5.46,0-10.46-1.05-14.99-3.14
		c-4.53-2.09-8.43-5.11-11.68-9.07c-3.26-3.95-5.81-8.77-7.67-14.47c-1.86-5.69-2.79-12.14-2.79-19.35c0-6.51,0.78-12.47,2.35-17.87
		c1.57-5.41,3.86-10.08,6.89-14.04c3.02-3.95,6.71-7,11.07-9.15c4.36-2.15,9.33-3.23,14.91-3.23c10.58,0,19.06,4.48,25.45,13.42
		V0.42h22.32v117.16H169.68z M150.85,101.37c5.46,0,10.02-2.27,13.69-6.8c3.66-4.53,5.49-10.46,5.49-17.78
		c0-18.6-6.34-27.89-19-27.89c-13.02,0-19.53,8.83-19.53,26.5c0,7.67,1.8,13.92,5.41,18.74C140.5,98.96,145.15,101.37,150.85,101.37
		z"/>
	<path class="st0" d="M228.08,117.58L197.4,31.8h25.28l17.96,56.66l18.13-56.66h23.89l-30.86,85.78H228.08z"/>
	<path class="st0" d="M335.48,117.58c-0.7-2.21-1.16-4.76-1.39-7.67c-2.68,3.02-6.22,5.43-10.64,7.24c-4.42,1.8-9.53,2.7-15.34,2.7
		c-9.88,0-17.12-2.18-21.71-6.54c-4.59-4.36-6.89-10.02-6.89-17c0-6.16,0.99-11.07,2.96-14.73c1.98-3.66,4.71-6.54,8.19-8.63
		c3.49-2.09,7.64-3.63,12.47-4.62c4.82-0.99,10.08-1.89,15.78-2.7c5.69-0.81,9.53-1.89,11.51-3.23c1.98-1.34,2.96-3.51,2.96-6.54
		c0-2.79-1.31-4.97-3.92-6.54c-2.61-1.57-6.13-2.35-10.55-2.35c-5.23,0-8.98,1.16-11.25,3.49c-2.27,2.33-3.69,5.41-4.27,9.24h-21.1
		c0.11-4.42,0.84-8.48,2.18-12.2c1.34-3.72,3.49-6.91,6.45-9.59c2.96-2.67,6.83-4.73,11.59-6.19c4.76-1.45,10.58-2.18,17.43-2.18
		c6.74,0,12.47,0.76,17.17,2.27c4.71,1.51,8.48,3.69,11.33,6.54c2.85,2.85,4.91,6.39,6.19,10.63c1.28,4.24,1.92,9.04,1.92,14.38
		v54.22H335.48z M333.91,75.57c-1.16,1.16-2.85,2.09-5.06,2.79c-2.21,0.7-5.41,1.46-9.59,2.27c-6.51,1.28-10.98,2.91-13.42,4.88
		c-2.44,1.98-3.66,4.82-3.66,8.54c0,6.39,3.66,9.59,10.98,9.59c2.9,0,5.61-0.49,8.11-1.48c2.5-0.99,4.65-2.32,6.45-4.01
		c1.8-1.68,3.25-3.66,4.36-5.93c1.1-2.27,1.66-4.68,1.66-7.24L333.91,75.57z"/>
	<path class="st0" d="M421.43,117.58V65.63c0-6.63-1.11-11.1-3.31-13.42c-2.21-2.32-5.99-3.49-11.33-3.49
		c-11.74,0-17.61,6.57-17.61,19.7v49.17h-22.66V31.8h21.62v12.55c2.67-4.88,6.22-8.57,10.64-11.07c4.42-2.5,10.11-3.75,17.09-3.75
		c4.07,0,7.85,0.61,11.33,1.83c3.49,1.22,6.48,3.05,8.98,5.49c2.5,2.44,4.47,5.43,5.93,8.98c1.45,3.55,2.18,7.64,2.18,12.29v59.45
		H421.43z"/>
	<path class="st0" d="M531.44,86.55c-0.58,5-2,9.53-4.27,13.6c-2.27,4.07-5.14,7.56-8.63,10.46c-3.49,2.91-7.47,5.17-11.94,6.8
		c-4.47,1.63-9.33,2.44-14.56,2.44c-5.81,0-11.13-0.96-15.95-2.88c-4.82-1.92-8.98-4.82-12.47-8.72c-3.49-3.89-6.19-8.72-8.11-14.47
		c-1.92-5.75-2.88-12.47-2.88-20.14c0-7.67,0.96-14.3,2.88-19.87c1.92-5.58,4.62-10.14,8.11-13.69c3.49-3.54,7.7-6.19,12.64-7.93
		c4.94-1.74,10.43-2.62,16.48-2.62c5.58,0,10.66,0.76,15.26,2.27c4.59,1.51,8.6,3.72,12.03,6.63c3.43,2.91,6.13,6.39,8.11,10.46
		c1.97,4.07,3.14,8.6,3.49,13.6h-22.84c-0.58-4.42-2.35-7.87-5.32-10.37c-2.96-2.5-6.6-3.75-10.9-3.75c-2.44,0-4.71,0.41-6.8,1.22
		c-2.09,0.81-3.92,2.18-5.49,4.1c-1.57,1.92-2.82,4.48-3.75,7.67c-0.93,3.2-1.4,7.12-1.4,11.77c0,9.41,1.68,16.39,5.06,20.92
		c3.37,4.53,7.26,6.8,11.68,6.8c4.42,0,8.19-1.22,11.33-3.66c3.14-2.44,4.94-5.98,5.4-10.63H531.44z"/>
	<path class="st0" d="M558.81,80.62c0.35,6.51,2.24,11.68,5.67,15.52c3.43,3.84,7.93,5.75,13.51,5.75c3.72,0,7-0.84,9.85-2.53
		c2.85-1.68,4.68-4.04,5.49-7.06h23.36c-2.68,8.83-7.32,15.63-13.95,20.4c-6.62,4.77-14.53,7.15-23.71,7.15
		c-28.59,0-42.89-15.57-42.89-46.72c0-6.63,0.93-12.61,2.79-17.96c1.86-5.34,4.56-9.94,8.11-13.77c3.54-3.84,7.87-6.77,12.99-8.8
		c5.11-2.03,10.98-3.05,17.61-3.05c13.25,0,23.27,4.24,30.07,12.73c6.8,8.49,10.2,21.27,10.2,38.36H558.81z M594.55,66.33
		c-0.12-3.14-0.67-5.9-1.66-8.28c-0.99-2.38-2.3-4.36-3.92-5.93c-1.63-1.57-3.49-2.73-5.58-3.49c-2.09-0.75-4.25-1.13-6.45-1.13
		c-4.53,0-8.46,1.66-11.77,4.97c-3.31,3.31-5.2,7.93-5.67,13.86H594.55z"/>
	<path class="st0" d="M685.21,117.58l-0.17-10.46c-5.23,8.49-13.19,12.73-23.88,12.73c-5.47,0-10.46-1.05-14.99-3.14
		c-4.53-2.09-8.43-5.11-11.68-9.07c-3.26-3.95-5.81-8.77-7.67-14.47c-1.86-5.69-2.79-12.14-2.79-19.35c0-6.51,0.78-12.47,2.35-17.87
		c1.57-5.41,3.86-10.08,6.89-14.04c3.02-3.95,6.71-7,11.07-9.15c4.36-2.15,9.33-3.23,14.91-3.23c10.57,0,19.06,4.48,25.45,13.42
		V0.42H707v117.16H685.21z M666.38,101.37c5.46,0,10.03-2.27,13.69-6.8c3.66-4.53,5.49-10.46,5.49-17.78c0-18.6-6.34-27.89-19-27.89
		c-13.02,0-19.53,8.83-19.53,26.5c0,7.67,1.8,13.92,5.41,18.74C656.03,98.96,660.68,101.37,666.38,101.37z"/>
</g>
<g>
	<path class="st1" d="M127.68,254.29c-1.57,8.15-4.07,15.51-7.5,22.08c-3.43,6.58-7.75,12.22-12.97,16.94
		c-5.22,4.72-11.25,8.36-18.12,10.93c-6.86,2.57-14.44,3.86-22.72,3.86c-9.29,0-17.98-1.57-26.05-4.72
		c-8.08-3.14-15.04-7.86-20.9-14.15c-5.86-6.29-10.47-14.04-13.83-23.26c-3.36-9.22-5.04-19.97-5.04-32.26
		c0-12.01,1.53-22.83,4.61-32.48c3.07-9.65,7.47-17.79,13.18-24.44c5.72-6.65,12.68-11.75,20.9-15.33
		c8.22-3.57,17.4-5.36,27.55-5.36c8.86,0,16.9,1.32,24.12,3.97c7.22,2.65,13.43,6.29,18.65,10.93c5.22,4.65,9.36,10.11,12.43,16.4
		c3.07,6.29,4.96,13.01,5.68,20.15h-29.8c-2-8.15-5.86-14.47-11.58-18.97c-5.72-4.5-12.15-6.75-19.29-6.75
		c-12.43,0-21.58,4.47-27.44,13.4c-5.86,8.93-8.79,21.19-8.79,36.77c0,15.86,2.89,28.19,8.68,36.98
		c5.79,8.79,14.47,13.19,26.05,13.19c8.86,0,15.97-2.39,21.33-7.18c5.36-4.79,9.04-11.68,11.04-20.69H127.68z"/>
	<path class="st1" d="M202.93,303.17v-14.79c-7.15,11.72-18.08,17.58-32.8,17.58c-5.29,0-10.11-0.93-14.47-2.79
		c-4.36-1.86-8.11-4.5-11.26-7.93c-3.14-3.43-5.61-7.5-7.4-12.22c-1.79-4.72-2.68-10-2.68-15.86v-69.46h27.87v65.17
		c0,13.15,5.93,19.72,17.79,19.72c7.14,0,12.54-2.25,16.19-6.75c3.64-4.5,5.47-10.25,5.47-17.26v-60.88h27.66v105.48H202.93z"/>
	<path class="st1" d="M304.97,229.64c-0.72-5.14-2.57-8.75-5.57-10.83c-3-2.07-7.72-3.11-14.15-3.11c-5.29,0-9.36,0.68-12.22,2.04
		c-2.86,1.36-4.29,3.61-4.29,6.75c0,3.15,1.43,5.54,4.29,7.18c2.86,1.64,7.15,3.25,12.86,4.82c6,1.71,11.72,3.25,17.15,4.61
		c5.43,1.36,10.22,2.82,14.36,4.4c5.57,2.29,9.86,5.4,12.86,9.33c3,3.93,4.5,9.33,4.5,16.19c0,11.01-3.9,19.58-11.68,25.73
		c-7.79,6.15-19.26,9.22-34.41,9.22c-16.29,0-28.76-3.43-37.41-10.29c-8.65-6.86-13.11-15.65-13.4-26.37h28.73
		c0,5,1.93,8.86,5.79,11.58c3.86,2.72,9.22,4.07,16.08,4.07c5,0,9.36-0.82,13.08-2.47c3.71-1.64,5.57-4.47,5.57-8.47
		c0-3.72-1.68-6.36-5.04-7.93c-3.36-1.57-7.33-2.93-11.9-4.07c-8.86-2.14-16.01-4.07-21.44-5.79c-5.43-1.72-10.01-3.79-13.72-6.22
		c-5-3.14-8.47-6.72-10.4-10.72c-1.93-4-2.89-8.36-2.89-13.08c0-4.43,0.78-8.57,2.36-12.43c1.57-3.86,4.14-7.18,7.72-9.97
		c3.57-2.79,8.18-4.96,13.83-6.54c5.64-1.57,12.47-2.36,20.47-2.36c15.29,0,26.55,2.93,33.76,8.79c7.21,5.86,11.18,14.51,11.9,25.94
		H304.97z"/>
	<path class="st1" d="M401.23,233.71h25.94v30.01c0,5.57-0.82,10.9-2.47,15.97c-1.65,5.08-4.22,9.58-7.72,13.51
		c-3.5,3.93-7.93,7.04-13.29,9.33s-11.76,3.43-19.19,3.43c-7.72,0-14.29-1.15-19.72-3.43c-5.43-2.28-9.9-5.36-13.4-9.22
		c-3.5-3.86-6.04-8.36-7.61-13.51c-1.57-5.14-2.36-10.58-2.36-16.29v-94.33h27.44v28.51h58.31v19.72h-58.31v43.31
		c0,6.72,1.25,11.9,3.75,15.54c2.5,3.64,6.61,5.47,12.33,5.47c5.57,0,9.68-1.79,12.33-5.36c2.64-3.57,3.97-8.65,3.97-15.22V233.71z"
		/>
	<path class="st1" d="M490.41,305.96c-8.57,0-16.22-1.36-22.94-4.07c-6.72-2.71-12.4-6.5-17.04-11.36
		c-4.65-4.86-8.18-10.72-10.61-17.58c-2.43-6.86-3.64-14.36-3.64-22.51c0-8.29,1.25-15.86,3.75-22.72
		c2.5-6.86,6.11-12.72,10.83-17.58c4.72-4.86,10.4-8.61,17.04-11.25c6.65-2.64,14.18-3.97,22.62-3.97c8.29,0,15.72,1.32,22.29,3.97
		c6.57,2.65,12.18,6.36,16.83,11.15c4.64,4.79,8.22,10.61,10.72,17.47c2.5,6.86,3.75,14.51,3.75,22.94c0,8.43-1.25,16.05-3.75,22.83
		c-2.5,6.79-6.07,12.62-10.72,17.47c-4.65,4.86-10.29,8.61-16.94,11.25C505.95,304.63,498.55,305.96,490.41,305.96z M490.41,282.59
		c17.01,0,25.51-10.72,25.51-32.16c0-21.29-8.51-31.94-25.51-31.94c-17.01,0-25.51,10.65-25.51,31.94
		C464.9,271.87,473.4,282.59,490.41,282.59z"/>
	<path class="st1" d="M677.77,303.17v-63.89c0-6.43-1.5-11.65-4.5-15.65c-3-4-7-6-12-6c-5.14,0-9.4,2.14-12.76,6.43
		c-3.36,4.29-5.04,9.65-5.04,16.08v63.03H615.6v-63.46c0-4.29-0.29-7.79-0.86-10.5c-0.57-2.71-1.54-4.86-2.89-6.43
		c-1.36-1.57-3.11-2.68-5.25-3.32c-2.14-0.64-4.72-0.96-7.72-0.96c-11.29,0-16.94,6.86-16.94,20.58v64.1h-27.87V197.69h26.15v15.44
		c3.57-7,7.86-11.79,12.86-14.36c5-2.57,11-3.86,18.01-3.86c3.57,0,6.75,0.29,9.54,0.86c2.79,0.57,5.29,1.54,7.5,2.89
		c2.21,1.36,4.32,3.11,6.32,5.25c2,2.14,4,4.72,6,7.72c2.86-5.86,6.65-10.11,11.36-12.76c4.72-2.64,10.43-3.97,17.15-3.97
		c5.28,0,10.15,0.89,14.58,2.68c4.43,1.79,8.22,4.29,11.36,7.5c3.14,3.22,5.61,6.97,7.4,11.25c1.79,4.29,2.68,8.86,2.68,13.72v73.1
		H677.77z"/>
</g>
</svg>
