<?xml version="1.0" encoding="utf-8"?>
<!-- Generator: Adobe Illustrator 26.2.1, SVG Export Plug-In . SVG Version: 6.00 Build 0)  -->
<svg version="1.1" id="Layer_1" xmlns="http://www.w3.org/2000/svg" xmlns:xlink="http://www.w3.org/1999/xlink" x="0px" y="0px"
	 viewBox="0 0 889 264" style="enable-background:new 0 0 889 264;" xml:space="preserve">
<style type="text/css">
	.st0{fill:#141A46;}
	.st1{fill:#EC8B5E;}
</style>
<g>
	<path d="M88.85,153.03c-0.76-7.69-3.55-13.43-8.37-17.2c-4.83-3.77-11.99-5.66-21.5-5.66c-8.9,0-15.61,1.51-20.14,4.53
		c-4.53,3.02-6.79,7.39-6.79,13.12c0,4.83,1.77,8.68,5.32,11.54c3.54,2.87,9.54,5.36,17.99,7.47c8.6,2.11,16.78,4.19,24.55,6.22
		c7.77,2.04,14.44,4.34,20.03,6.9c3.32,1.51,6.41,3.25,9.28,5.2c2.86,1.96,5.35,4.38,7.47,7.24c2.11,2.87,3.77,6.26,4.98,10.18
		c1.21,3.93,1.81,8.53,1.81,13.8c0,8.3-1.47,15.43-4.41,21.38c-2.94,5.96-7.09,10.9-12.45,14.82c-5.36,3.93-11.69,6.82-19.01,8.71
		c-7.32,1.88-15.35,2.83-24.1,2.83c-9.36,0-17.88-1.02-25.57-3.05c-7.69-2.04-14.33-5.17-19.91-9.39
		c-5.58-4.22-9.96-9.47-13.13-15.73c-3.17-6.26-4.83-13.61-4.98-22.06h30.32c0.3,7.69,3.43,13.77,9.39,18.22
		c5.96,4.45,13.99,6.68,24.1,6.68c9.35,0,16.56-1.85,21.61-5.54c5.05-3.69,7.58-8.94,7.58-15.73c0-2.26-0.34-4.3-1.02-6.11
		c-0.68-1.81-1.89-3.51-3.62-5.09c-1.74-1.58-4.11-3.02-7.13-4.3c-3.02-1.28-6.87-2.45-11.54-3.51c-9.36-2.11-17.24-3.96-23.65-5.54
		c-6.41-1.58-12.26-3.58-17.54-6c-8.15-3.62-14.37-8.33-18.67-14.14c-4.3-5.8-6.45-13.46-6.45-22.97c0-6.79,1.13-13.01,3.39-18.67
		c2.26-5.66,5.69-10.52,10.3-14.6c4.6-4.07,10.33-7.24,17.2-9.5c6.86-2.26,14.9-3.4,24.1-3.4c9.5,0,17.95,1.21,25.34,3.62
		c7.39,2.41,13.61,5.81,18.67,10.18c5.05,4.38,8.97,9.58,11.77,15.61c2.79,6.04,4.33,12.67,4.64,19.91H88.85z"/>
	<path d="M186.6,261.87c-9.05,0-17.12-1.44-24.21-4.3c-7.09-2.86-13.09-6.86-17.99-11.99c-4.9-5.13-8.64-11.32-11.2-18.56
		c-2.57-7.24-3.85-15.16-3.85-23.76c0-8.75,1.32-16.75,3.96-23.99c2.64-7.24,6.45-13.43,11.43-18.56
		c4.98-5.13,10.98-9.09,17.99-11.88c7.02-2.79,14.97-4.19,23.87-4.19c8.75,0,16.59,1.4,23.53,4.19c6.94,2.79,12.86,6.71,17.76,11.77
		c4.9,5.06,8.67,11.2,11.31,18.44c2.64,7.24,3.96,15.31,3.96,24.21c0,8.9-1.32,16.93-3.96,24.1c-2.64,7.17-6.41,13.31-11.31,18.44
		c-4.9,5.13-10.86,9.09-17.88,11.88C203.01,260.48,195.2,261.87,186.6,261.87z M186.6,237.21c17.95,0,26.93-11.32,26.93-33.94
		c0-22.48-8.98-33.72-26.93-33.72c-17.95,0-26.93,11.24-26.93,33.72C159.68,225.89,168.65,237.21,186.6,237.21z"/>
	<path d="M253.81,258.93V106.86h29.42v152.07H253.81z"/>
	<path d="M368.09,258.93v-15.61c-7.55,12.37-19.09,18.56-34.62,18.56c-5.58,0-10.67-0.98-15.27-2.94c-4.6-1.96-8.56-4.75-11.88-8.37
		c-3.32-3.62-5.92-7.92-7.81-12.9c-1.89-4.98-2.83-10.56-2.83-16.75V147.6h29.42v68.79c0,13.88,6.26,20.82,18.78,20.82
		c7.54,0,13.24-2.38,17.08-7.13c3.85-4.75,5.77-10.82,5.77-18.22V147.6h29.19v111.34H368.09z"/>
	<path d="M471.96,185.61h27.38v31.68c0,5.88-0.87,11.51-2.6,16.86c-1.74,5.36-4.45,10.11-8.15,14.26c-3.7,4.15-8.37,7.43-14.03,9.84
		c-5.66,2.41-12.41,3.62-20.25,3.62c-8.15,0-15.09-1.21-20.82-3.62c-5.73-2.41-10.45-5.66-14.14-9.73
		c-3.7-4.07-6.38-8.83-8.03-14.26c-1.66-5.43-2.49-11.16-2.49-17.2V117.5h28.97v30.1h61.55v20.82h-61.55v45.71
		c0,7.09,1.32,12.56,3.96,16.41c2.64,3.85,6.98,5.77,13.01,5.77c5.88,0,10.22-1.88,13.01-5.66c2.79-3.77,4.19-9.13,4.19-16.07
		V185.61z"/>
	<path d="M512.01,134.24v-27.38h29.42v27.38H512.01z M512.01,258.93V147.6h29.42v111.34H512.01z"/>
	<path d="M609.53,261.87c-9.05,0-17.12-1.44-24.21-4.3c-7.09-2.86-13.09-6.86-17.99-11.99c-4.9-5.13-8.64-11.32-11.2-18.56
		c-2.57-7.24-3.85-15.16-3.85-23.76c0-8.75,1.32-16.75,3.96-23.99c2.64-7.24,6.45-13.43,11.43-18.56
		c4.98-5.13,10.98-9.09,17.99-11.88c7.02-2.79,14.97-4.19,23.87-4.19c8.75,0,16.59,1.4,23.53,4.19c6.94,2.79,12.86,6.71,17.76,11.77
		c4.9,5.06,8.67,11.2,11.31,18.44c2.64,7.24,3.96,15.31,3.96,24.21c0,8.9-1.32,16.93-3.96,24.1c-2.64,7.17-6.41,13.31-11.31,18.44
		c-4.9,5.13-10.86,9.09-17.88,11.88C625.94,260.48,618.13,261.87,609.53,261.87z M609.53,237.21c17.95,0,26.93-11.32,26.93-33.94
		c0-22.48-8.98-33.72-26.93-33.72c-17.95,0-26.93,11.24-26.93,33.72C582.61,225.89,591.58,237.21,609.53,237.21z"/>
	<path d="M748.02,258.93V191.5c0-8.6-1.43-14.41-4.3-17.42c-2.87-3.02-7.77-4.53-14.71-4.53c-15.24,0-22.86,8.53-22.86,25.57v63.81
		h-29.42V147.6h28.06v16.29c3.47-6.34,8.07-11.12,13.8-14.37c5.73-3.24,13.12-4.87,22.18-4.87c5.28,0,10.18,0.79,14.71,2.38
		c4.53,1.58,8.41,3.96,11.65,7.13c3.24,3.17,5.81,7.05,7.69,11.65c1.88,4.6,2.83,9.92,2.83,15.95v77.17H748.02z"/>
	<path d="M857.54,181.31c-0.76-5.43-2.72-9.24-5.88-11.43c-3.17-2.18-8.15-3.28-14.94-3.28c-5.58,0-9.88,0.72-12.9,2.15
		c-3.02,1.44-4.52,3.81-4.52,7.13c0,3.32,1.51,5.85,4.52,7.58c3.02,1.74,7.54,3.43,13.58,5.09c6.34,1.81,12.37,3.43,18.1,4.86
		c5.73,1.44,10.78,2.98,15.16,4.64c5.88,2.41,10.41,5.7,13.58,9.84c3.17,4.15,4.75,9.84,4.75,17.09c0,11.62-4.11,20.67-12.33,27.15
		c-8.22,6.49-20.33,9.73-36.32,9.73c-17.2,0-30.36-3.62-39.49-10.86c-9.13-7.24-13.84-16.52-14.14-27.83h30.32
		c0,5.28,2.04,9.36,6.11,12.22c4.07,2.87,9.73,4.3,16.97,4.3c5.28,0,9.88-0.87,13.8-2.6c3.92-1.73,5.88-4.71,5.88-8.94
		c0-3.92-1.78-6.71-5.32-8.37c-3.55-1.66-7.73-3.09-12.56-4.3c-9.35-2.26-16.9-4.3-22.63-6.11c-5.74-1.81-10.56-4-14.48-6.56
		c-5.28-3.32-8.94-7.09-10.98-11.31c-2.04-4.22-3.05-8.83-3.05-13.8c0-4.67,0.83-9.05,2.49-13.12c1.66-4.07,4.37-7.58,8.15-10.52
		c3.77-2.94,8.63-5.24,14.59-6.9c5.96-1.66,13.16-2.49,21.61-2.49c16.14,0,28.02,3.09,35.64,9.28c7.62,6.19,11.8,15.31,12.56,27.38
		H857.54z"/>
</g>
<g>
	<path class="st0" d="M56.46,79.95l-4.9-15.97H23l-5.48,15.97H0.38L28.01,2.54h18.77l27.28,77.41H56.46z M37.23,19.91h-0.12
		L27.2,50.69h19.7L37.23,19.91z"/>
	<path class="st0" d="M113.12,79.95l-0.12-7c-3.5,5.67-8.82,8.51-15.97,8.51c-3.65,0-7-0.7-10.03-2.1c-3.03-1.4-5.64-3.42-7.81-6.06
		c-2.18-2.64-3.89-5.87-5.13-9.68c-1.24-3.81-1.87-8.12-1.87-12.94c0-4.35,0.52-8.34,1.57-11.95c1.05-3.61,2.58-6.74,4.6-9.38
		c2.02-2.64,4.49-4.68,7.4-6.12c2.91-1.44,6.24-2.16,9.97-2.16c7.07,0,12.75,2.99,17.02,8.98V1.61h14.92v78.35H113.12z
		 M100.53,69.11c3.65,0,6.7-1.52,9.15-4.55c2.45-3.03,3.67-7,3.67-11.89c0-12.43-4.24-18.65-12.71-18.65
		c-8.71,0-13.06,5.91-13.06,17.72c0,5.13,1.2,9.31,3.61,12.53C93.61,67.5,96.72,69.11,100.53,69.11z"/>
	<path class="st0" d="M152.18,79.95l-20.52-57.36h16.91l12.01,37.89l12.13-37.89h15.97l-20.64,57.36H152.18z"/>
	<path class="st0" d="M224,79.95c-0.47-1.48-0.78-3.19-0.93-5.13c-1.79,2.02-4.16,3.63-7.11,4.84c-2.96,1.2-6.37,1.81-10.26,1.81
		c-6.61,0-11.45-1.46-14.52-4.37c-3.07-2.91-4.61-6.7-4.61-11.37c0-4.12,0.66-7.4,1.98-9.85c1.32-2.45,3.15-4.37,5.48-5.77
		c2.33-1.4,5.11-2.43,8.34-3.09c3.22-0.66,6.74-1.26,10.55-1.81c3.81-0.54,6.37-1.26,7.7-2.16c1.32-0.89,1.98-2.35,1.98-4.37
		c0-1.87-0.87-3.32-2.62-4.37c-1.75-1.05-4.1-1.57-7.05-1.57c-3.5,0-6,0.78-7.52,2.33c-1.52,1.56-2.47,3.61-2.86,6.18h-14.11
		c0.08-2.95,0.56-5.67,1.46-8.16c0.89-2.49,2.33-4.62,4.31-6.41c1.98-1.79,4.57-3.17,7.75-4.14c3.19-0.97,7.07-1.46,11.66-1.46
		c4.51,0,8.34,0.51,11.48,1.52c3.15,1.01,5.67,2.47,7.58,4.37c1.9,1.91,3.28,4.28,4.14,7.11c0.85,2.84,1.28,6.04,1.28,9.62v36.26
		H224z M222.95,51.86c-0.78,0.78-1.91,1.4-3.38,1.87c-1.48,0.47-3.61,0.97-6.41,1.52c-4.35,0.86-7.34,1.94-8.98,3.26
		c-1.63,1.32-2.45,3.23-2.45,5.71c0,4.28,2.45,6.41,7.34,6.41c1.94,0,3.75-0.33,5.42-0.99c1.67-0.66,3.11-1.55,4.31-2.68
		c1.2-1.13,2.18-2.45,2.91-3.96c0.74-1.52,1.11-3.13,1.11-4.84L222.95,51.86z"/>
	<path class="st0" d="M281.47,79.95V45.21c0-4.43-0.74-7.42-2.21-8.98c-1.48-1.55-4-2.33-7.58-2.33c-7.85,0-11.78,4.39-11.78,13.17
		v32.88h-15.16V22.59h14.46v8.39c1.79-3.26,4.16-5.73,7.11-7.4c2.95-1.67,6.76-2.51,11.43-2.51c2.72,0,5.25,0.41,7.58,1.22
		c2.33,0.82,4.33,2.04,6,3.67c1.67,1.63,2.99,3.63,3.96,6c0.97,2.37,1.46,5.11,1.46,8.22v39.76H281.47z"/>
	<path class="st0" d="M355.04,59.2c-0.39,3.34-1.34,6.37-2.86,9.09c-1.52,2.72-3.44,5.05-5.77,7c-2.33,1.94-4.99,3.46-7.99,4.55
		c-2.99,1.09-6.24,1.63-9.74,1.63c-3.89,0-7.44-0.64-10.67-1.92c-3.23-1.28-6-3.22-8.34-5.83c-2.33-2.6-4.14-5.83-5.42-9.68
		c-1.28-3.85-1.92-8.34-1.92-13.47s0.64-9.56,1.92-13.29c1.28-3.73,3.09-6.78,5.42-9.15c2.33-2.37,5.15-4.14,8.45-5.3
		c3.3-1.17,6.98-1.75,11.02-1.75c3.73,0,7.13,0.51,10.2,1.52c3.07,1.01,5.75,2.49,8.04,4.43c2.29,1.94,4.1,4.28,5.42,7
		c1.32,2.72,2.1,5.75,2.33,9.09h-15.27c-0.39-2.95-1.57-5.26-3.56-6.94c-1.98-1.67-4.41-2.51-7.29-2.51c-1.63,0-3.15,0.27-4.55,0.82
		c-1.4,0.54-2.62,1.46-3.67,2.74s-1.89,2.99-2.51,5.13c-0.62,2.14-0.93,4.76-0.93,7.87c0,6.3,1.13,10.96,3.38,13.99
		c2.25,3.03,4.86,4.55,7.81,4.55c2.95,0,5.48-0.82,7.58-2.45c2.1-1.63,3.3-4,3.61-7.11H355.04z"/>
	<path class="st0" d="M373.34,55.24c0.23,4.35,1.5,7.81,3.79,10.38c2.29,2.57,5.3,3.85,9.04,3.85c2.49,0,4.68-0.56,6.59-1.69
		c1.9-1.13,3.13-2.7,3.67-4.72h15.62c-1.79,5.91-4.9,10.45-9.33,13.64c-4.43,3.19-9.72,4.78-15.86,4.78
		c-19.12,0-28.68-10.41-28.68-31.25c0-4.43,0.62-8.43,1.87-12.01c1.24-3.57,3.05-6.65,5.42-9.21c2.37-2.57,5.26-4.53,8.69-5.89
		c3.42-1.36,7.35-2.04,11.78-2.04c8.86,0,15.56,2.84,20.11,8.51c4.55,5.67,6.82,14.22,6.82,25.65H373.34z M397.24,45.68
		c-0.08-2.1-0.45-3.94-1.11-5.54c-0.66-1.59-1.54-2.91-2.62-3.96c-1.09-1.05-2.33-1.83-3.73-2.33c-1.4-0.51-2.84-0.76-4.31-0.76
		c-3.03,0-5.65,1.11-7.87,3.32c-2.22,2.21-3.48,5.3-3.79,9.27H397.24z"/>
	<path class="st0" d="M457.87,79.95l-0.12-7c-3.5,5.67-8.82,8.51-15.97,8.51c-3.65,0-7-0.7-10.03-2.1c-3.03-1.4-5.64-3.42-7.81-6.06
		c-2.18-2.64-3.89-5.87-5.13-9.68c-1.24-3.81-1.87-8.12-1.87-12.94c0-4.35,0.52-8.34,1.57-11.95c1.05-3.61,2.58-6.74,4.6-9.38
		c2.02-2.64,4.49-4.68,7.4-6.12c2.91-1.44,6.24-2.16,9.97-2.16c7.07,0,12.75,2.99,17.02,8.98V1.61h14.92v78.35H457.87z
		 M445.28,69.11c3.65,0,6.7-1.52,9.15-4.55c2.45-3.03,3.67-7,3.67-11.89c0-12.43-4.24-18.65-12.71-18.65
		c-8.71,0-13.06,5.91-13.06,17.72c0,5.13,1.2,9.31,3.61,12.53C438.36,67.5,441.47,69.11,445.28,69.11z"/>
	<path class="st1" d="M575.04,53.37c-0.86,4.43-2.21,8.43-4.08,12.01c-1.87,3.58-4.22,6.65-7.05,9.21
		c-2.84,2.56-6.12,4.55-9.85,5.95c-3.73,1.4-7.85,2.1-12.36,2.1c-5.05,0-9.78-0.86-14.17-2.56c-4.39-1.71-8.18-4.27-11.37-7.69
		c-3.19-3.42-5.69-7.64-7.52-12.65c-1.83-5.01-2.74-10.86-2.74-17.55c0-6.53,0.83-12.42,2.51-17.66c1.67-5.25,4.06-9.68,7.17-13.29
		c3.11-3.61,6.9-6.39,11.37-8.34c4.47-1.94,9.46-2.91,14.98-2.91c4.82,0,9.19,0.72,13.12,2.16c3.92,1.44,7.31,3.42,10.14,5.95
		c2.84,2.53,5.09,5.5,6.76,8.92c1.67,3.42,2.7,7.07,3.09,10.96h-16.21c-1.09-4.43-3.19-7.87-6.3-10.32
		c-3.11-2.45-6.61-3.67-10.49-3.67c-6.76,0-11.74,2.43-14.92,7.29c-3.19,4.86-4.78,11.52-4.78,19.99c0,8.63,1.57,15.33,4.72,20.11
		c3.15,4.78,7.87,7.17,14.17,7.17c4.82,0,8.69-1.3,11.6-3.91c2.91-2.6,4.91-6.35,6-11.25H575.04z"/>
	<path class="st1" d="M615.96,79.95v-8.04c-3.89,6.37-9.83,9.56-17.84,9.56c-2.88,0-5.5-0.51-7.87-1.52
		c-2.37-1.01-4.41-2.45-6.12-4.31c-1.71-1.87-3.05-4.08-4.02-6.65c-0.97-2.56-1.46-5.44-1.46-8.63V22.59h15.16v35.44
		c0,7.15,3.22,10.73,9.68,10.73c3.89,0,6.82-1.22,8.8-3.67c1.98-2.45,2.97-5.58,2.97-9.38V22.59h15.04v57.36H615.96z"/>
	<path class="st1" d="M671.45,39.97c-0.39-2.8-1.4-4.76-3.03-5.89c-1.63-1.13-4.2-1.69-7.69-1.69c-2.88,0-5.09,0.37-6.65,1.11
		c-1.56,0.74-2.33,1.96-2.33,3.67c0,1.71,0.78,3.01,2.33,3.91c1.55,0.89,3.89,1.77,7,2.62c3.26,0.93,6.37,1.77,9.33,2.51
		c2.95,0.74,5.56,1.54,7.81,2.39c3.03,1.24,5.36,2.93,7,5.07c1.63,2.14,2.45,5.07,2.45,8.8c0,5.99-2.12,10.65-6.35,13.99
		c-4.24,3.34-10.47,5.01-18.71,5.01c-8.86,0-15.64-1.87-20.34-5.6c-4.7-3.73-7.13-8.51-7.29-14.34h15.62c0,2.72,1.05,4.82,3.15,6.3
		c2.1,1.48,5.01,2.21,8.74,2.21c2.72,0,5.09-0.45,7.11-1.34c2.02-0.89,3.03-2.43,3.03-4.61c0-2.02-0.91-3.46-2.74-4.31
		c-1.83-0.85-3.98-1.59-6.47-2.21c-4.82-1.17-8.71-2.22-11.66-3.15c-2.95-0.93-5.44-2.06-7.46-3.38c-2.72-1.71-4.61-3.65-5.65-5.83
		c-1.05-2.18-1.57-4.55-1.57-7.11c0-2.41,0.43-4.66,1.28-6.76c0.85-2.1,2.25-3.91,4.2-5.42c1.94-1.52,4.45-2.7,7.52-3.56
		c3.07-0.85,6.78-1.28,11.13-1.28c8.32,0,14.44,1.59,18.36,4.78c3.92,3.19,6.08,7.89,6.47,14.11H671.45z"/>
	<path class="st1" d="M723.8,42.18h14.11V58.5c0,3.03-0.45,5.93-1.34,8.69c-0.89,2.76-2.29,5.21-4.2,7.34
		c-1.91,2.14-4.31,3.83-7.23,5.07s-6.39,1.87-10.44,1.87c-4.2,0-7.77-0.62-10.73-1.87c-2.95-1.24-5.38-2.91-7.29-5.01
		c-1.91-2.1-3.28-4.55-4.14-7.34c-0.86-2.8-1.28-5.75-1.28-8.86V7.09h14.92v15.51h31.71v10.73h-31.71v23.55
		c0,3.65,0.68,6.47,2.04,8.45c1.36,1.98,3.59,2.97,6.7,2.97c3.03,0,5.27-0.97,6.7-2.91c1.44-1.94,2.16-4.7,2.16-8.28V42.18z"/>
	<path class="st1" d="M772.3,81.47c-4.66,0-8.82-0.74-12.47-2.21c-3.66-1.48-6.74-3.54-9.27-6.18c-2.53-2.64-4.45-5.83-5.77-9.56
		c-1.32-3.73-1.98-7.81-1.98-12.24c0-4.51,0.68-8.63,2.04-12.36c1.36-3.73,3.32-6.92,5.89-9.56c2.56-2.64,5.65-4.68,9.27-6.12
		c3.61-1.44,7.71-2.16,12.3-2.16c4.51,0,8.55,0.72,12.12,2.16c3.57,1.44,6.63,3.46,9.15,6.06c2.53,2.6,4.47,5.77,5.83,9.5
		c1.36,3.73,2.04,7.89,2.04,12.48c0,4.59-0.68,8.73-2.04,12.42c-1.36,3.69-3.3,6.86-5.83,9.5c-2.53,2.64-5.6,4.68-9.21,6.12
		C780.75,80.75,776.73,81.47,772.3,81.47z M772.3,68.76c9.25,0,13.87-5.83,13.87-17.49c0-11.58-4.62-17.37-13.87-17.37
		c-9.25,0-13.87,5.79-13.87,17.37C758.42,62.93,763.05,68.76,772.3,68.76z"/>
	<path class="st1" d="M874.19,79.95V45.21c0-3.5-0.82-6.33-2.45-8.51c-1.63-2.18-3.81-3.26-6.53-3.26c-2.8,0-5.11,1.17-6.94,3.5
		c-1.83,2.33-2.74,5.25-2.74,8.74v34.28h-15.16V45.45c0-2.33-0.16-4.24-0.47-5.71c-0.31-1.48-0.84-2.64-1.57-3.5
		c-0.74-0.85-1.69-1.46-2.86-1.81c-1.17-0.35-2.56-0.52-4.2-0.52c-6.14,0-9.21,3.73-9.21,11.19v34.86h-15.16V22.59h14.22v8.39
		c1.94-3.81,4.27-6.41,6.99-7.81c2.72-1.4,5.98-2.1,9.79-2.1c1.94,0,3.67,0.16,5.19,0.47c1.52,0.31,2.87,0.84,4.08,1.57
		c1.2,0.74,2.35,1.69,3.44,2.86c1.09,1.17,2.18,2.57,3.27,4.2c1.55-3.19,3.61-5.5,6.18-6.94c2.56-1.44,5.67-2.16,9.33-2.16
		c2.87,0,5.52,0.49,7.93,1.46c2.41,0.97,4.47,2.33,6.18,4.08c1.71,1.75,3.05,3.79,4.02,6.12c0.97,2.33,1.46,4.82,1.46,7.46v39.76
		H874.19z"/>
</g>
</svg>
