<?xml version="1.0" encoding="UTF-8"?><svg xmlns="http://www.w3.org/2000/svg" viewBox="0 0 125.33 125.33"><defs><style>.c{fill:#fff;opacity:.9;}.d{fill:#ec8b5e;fill-rule:evenodd;}</style></defs><g id="a"><path class="d" d="M62.66,0C72.02,0,80.89,2.06,88.86,5.73c-.03,19.63-.15,42.92,.06,47.98,.23,3.42,2.1,6.4,4.28,8.94-2.36,2.71-4.26,5.99-4.33,9.67-.07,3.87-.06,26.12-.04,47.3-7.96,3.66-16.82,5.71-26.16,5.71s-18.2-2.05-26.16-5.71c.01-21.18,.02-43.43-.04-47.3-.07-3.68-1.97-6.96-4.33-9.67,2.17-2.54,4.05-5.52,4.28-8.94,.21-5.06,.09-28.35,.06-47.98C44.44,2.06,53.31,0,62.66,0h0Zm37.78,12.67c15.11,11.44,24.88,29.57,24.88,49.99s-9.76,38.53-24.86,49.98c0-17.88-.02-34.51-.03-37.63,.03-1.4-.08-3.08,1.14-4.06,2.43-2.19,5.9-2.26,8.98-2.56,0-3.82,0-7.65,0-11.47-3.45-.39-8.33-.37-9.92-4.12-.24-3.18-.22-22.81-.18-40.13h0ZM24.86,112.65C9.76,101.2,0,83.08,0,62.67S9.77,24.12,24.88,12.68c.04,17.32,.06,36.95-.18,40.13-1.58,3.75-6.47,3.73-9.92,4.12,0,3.82,0,7.64,0,11.47,3.08,.3,6.55,.36,8.98,2.56,1.21,.99,1.1,2.66,1.14,4.06,0,3.12-.02,19.75-.03,37.63h0Zm20.04-44.15h35.52v-11.66H44.9v11.66Z"/></g><g id="b"><rect class="c" width="125.33" height="125.33"/></g></svg>