<?xml version="1.0" encoding="UTF-8"?><svg id="Layer_1" xmlns="http://www.w3.org/2000/svg" viewBox="0 0 404.72245 125.326"><path d="M62.66289,0c9.353,0,18.2254,2.0526,26.1967,5.7263-.0252,19.6316-.1499,42.9248.0641,47.9821.2259,3.4197,2.1041,6.4012,4.2766,8.9373-2.3576,2.7071-4.26329,5.9902-4.3316,9.6707-.0655,3.8713-.0578,26.1153-.0442,47.2997-7.9626,3.6635-16.8222,5.7099-26.1616,5.7099s-18.19889-2.0464-26.1615-5.7099c.01361-21.1844.0213-43.4284-.0442-47.2997-.0683-3.6805-1.974-6.9636-4.3316-9.6707,2.1725-2.5361,4.05041-5.5176,4.2766-8.9373.214-5.0573.0893-28.3505.0641-47.9821C44.43759,2.0526,53.31,0,62.66289,0h0ZM100.44789,12.6732c15.1129,11.4398,24.878,29.5738,24.878,49.9898,0,20.4075-9.7571,38.535-24.8598,49.9757-.00909-17.8824-.025-34.5082-.02809-37.6288.03429-1.4049-.07571-3.077,1.13779-4.0641,2.4333-2.1934,5.9015-2.2552,8.9785-2.5565-.0068-3.8245-.0068-7.649-.0068-11.4667-3.44749-.3907-8.3342-.3702-9.9176-4.1191-.2421-3.1804-.2217-22.8053-.182-40.1303h0ZM24.85949,112.6387C9.75679,101.198,0,83.0705,0,62.663,0,42.247,9.76509,24.113,24.878,12.6732c.03969,17.325.06009,36.9499-.182,40.1303-1.58341,3.7489-6.47011,3.7284-9.91761,4.1191,0,3.8177,0,7.6422-.0071,11.4667,3.0773.3013,6.5455.3631,8.9788,2.5565,1.2132.9871,1.1035,2.6592,1.1378,4.0641-.0034,3.1206-.019,19.7464-.0284,37.6288h0ZM44.90279,68.4924h35.5203v-11.6586h-35.5203v11.6586Z" fill="#ec8b5e" fill-rule="evenodd"/><path d="M158.12431,51.7899l-3.31201,10.87305h-13.10547l17.49756-51.26855h16.3457l17.49707,51.26855h-13.10449l-3.24072-10.87305h-18.57764ZM172.59794,38.10874c-1.87256-6.12061-3.67236-12.45703-5.18457-18.64941h-.14404c-1.51221,6.19238-3.24023,12.52881-5.04053,18.64941l-1.00781,3.45654h12.45703l-1.08008-3.45654Z" fill="#161b46"/><path d="M234.8787,44.37339c0,11.73682-5.97656,19.29785-15.26562,19.29785-3.95996,0-7.77637-1.72852-10.00879-4.96875h-.14355v17.28223h-11.95312V26.08384h11.52051v4.53613h.14453c2.23242-3.67188,6.12012-5.54443,10.15234-5.54443,9.43359,0,15.55371,7.56104,15.55371,19.29785ZM208.8123,44.37339c0,6.33643,2.66406,10.2251,6.69629,10.2251,4.17676,0,6.84082-4.03271,6.84082-10.2251s-2.66406-10.2251-6.84082-10.2251c-4.03223,0-6.69629,3.88867-6.69629,10.2251Z" fill="#161b46"/><path d="M278.79765,44.37339c0,11.73682-5.97656,19.29785-15.26562,19.29785-3.95996,0-7.77637-1.72852-10.00879-4.96875h-.14355v17.28223h-11.95312V26.08384h11.52051v4.53613h.14453c2.23242-3.67188,6.12012-5.54443,10.15234-5.54443,9.43359,0,15.55371,7.56104,15.55371,19.29785ZM252.73124,44.37339c0,6.33643,2.66406,10.2251,6.69629,10.2251,4.17676,0,6.84082-4.03271,6.84082-10.2251s-2.66406-10.2251-6.84082-10.2251c-4.03223,0-6.69629,3.88867-6.69629,10.2251Z" fill="#161b46"/><path d="M285.3455,62.66294V11.39439h11.95312v51.26855h-11.95312Z" fill="#161b46"/><path d="M306.08085,20.82749v-9.43311h11.95312v9.43311h-11.95312ZM306.08085,62.66294V26.08384h11.95312v36.5791h-11.95312Z" fill="#161b46"/><path d="M349.57011,51.43003h12.16895c-1.51172,6.9126-8.35254,12.38574-18.14551,12.38574-12.24121,0-19.00977-8.28125-19.00977-19.73047,0-10.80078,6.84082-19.15381,18.86523-19.15381,8.6416,0,14.90527,4.53662,17.42578,11.7373,1.00781,2.73633,1.44043,5.68848,1.44043,10.15283h-25.99414c.28809,6.84033,3.45605,9.00049,7.12793,9.00049,3.45703,0,5.76074-1.87207,6.12109-4.39209ZM336.53691,40.05308h13.75293c-.50391-5.1123-3.38379-7.27295-6.84082-7.27295-3.52832,0-6.19238,2.08838-6.91211,7.27295Z" fill="#161b46"/><path d="M393.20195,62.66294v-4.53662h-.14453c-2.23242,3.67236-6.12012,5.54492-10.15234,5.54492-9.43359,0-15.55371-7.56104-15.55371-19.29785s5.97656-19.29785,15.26562-19.29785c3.95996,0,7.77637,1.72852,10.00879,4.96875h.14355V11.39439h11.95312v51.26855h-11.52051ZM379.88066,44.37339c0,6.19238,2.66406,10.2251,6.84082,10.2251,4.03223,0,6.69629-3.88867,6.69629-10.2251s-2.66406-10.2251-6.69629-10.2251c-4.17676,0-6.84082,4.03271-6.84082,10.2251Z" fill="#161b46"/><path d="M164.61698,89.45152c0,3.68066-1.74805,5.88867-5.38281,7.22266v.09277c4.00244,1.33398,5.88867,3.72559,5.88867,7.72852,0,5.24414-4.32422,8.78711-10.62695,8.78711-6.85498,0-10.71924-3.72656-10.71924-9.9834h4.27832c0,4.14062,2.25439,6.34863,6.44092,6.34863,3.77246,0,6.30273-2.16211,6.30273-5.29004,0-3.63477-2.57617-5.61328-7.36084-5.61328h-1.24219v-3.54199h1.24219c4.27832,0,6.90088-2.11621,6.90088-5.38281,0-3.12793-2.39258-5.19824-6.07275-5.19824-3.77246,0-5.93457,2.02344-5.93457,6.16406h-4.27881c0-6.16406,4.00244-9.79883,10.39746-9.79883,6.25635,0,10.16699,3.3584,10.16699,8.46484Z" fill="#161b46"/><path d="M183.15458,79.88218c7.54492,0,11.45508,3.91113,11.45508,9.8916s-3.91016,9.89062-11.45508,9.89062h-6.99316v12.97363h-4.23242v-32.75586h11.22559ZM176.16142,95.98472h6.6709c4.96875,0,7.40625-2.34668,7.40625-6.21094s-2.4375-6.21094-7.40625-6.21094h-6.6709v12.42188Z" fill="#161b46"/><path d="M221.24296,108.86558v3.77246h-20.97852v-32.75586h4.23242v28.9834h16.74609Z" fill="#161b46"/><path d="M257.26054,90.00328h-4.27832c0-4.83008-2.66797-7.13086-7.49902-7.13086-4.04785,0-6.48633,1.97852-6.48633,5.10742,0,3.49609,2.53027,4.50781,7.91309,5.84277,6.21094,1.51758,11.13281,3.08203,11.13281,9.79883,0,5.88867-4.60059,9.66113-11.73145,9.66113-7.63672,0-12.2373-3.95703-12.2373-11.50195h4.37109c0,5.38281,2.99023,7.86719,7.91211,7.86719,4.69336,0,7.31543-2.16211,7.31543-5.79688,0-3.63379-2.71484-4.55371-8.00488-5.88867-6.30273-1.56348-10.99512-3.12793-10.99512-9.70703,0-5.29004,4.18652-9.0166,10.85645-9.0166,7.82129,0,11.73145,3.68066,11.73145,10.76465Z" fill="#161b46"/><path d="M272.89921,113.69664c-2.2998,5.98047-4.60059,7.63672-9.61523,7.63672-.78223,0-1.51855-.0459-2.11621-.23047v-3.4043c.55176.18457,1.19629.27637,1.93262.27637,3.08203,0,4.27832-1.10449,5.7959-5.24512l-8.87891-23.46191h4.37109l6.7168,18.58594h.0918l6.80859-18.58594h4.27832l-9.38477,24.42871Z" fill="#161b46"/><path d="M301.46562,96.58238h-3.95703c0-3.12793-1.93164-4.83008-5.19824-4.83008-2.80664,0-4.55469,1.28809-4.55469,3.31152,0,2.43848,1.70215,2.85254,5.61328,3.77246,4.27832,1.05859,8.83301,2.02441,8.83301,7.45312,0,4.18652-3.58887,6.99316-9.24707,6.99316-6.11914,0-9.75391-2.94434-9.7998-8.41895h4.09473c0,3.3584,2.11621,5.19824,5.75098,5.19824,3.03613,0,5.06055-1.37988,5.06055-3.49609,0-2.71484-1.93262-3.2207-6.44141-4.32422-3.91016-.9668-7.91211-1.74902-7.91211-6.85547,0-4.00195,3.54199-6.7627,8.64844-6.7627,5.70508,0,9.10938,2.80664,9.10938,7.95898Z" fill="#161b46"/><path d="M317.56425,109.23374v3.3125c-.69043.18359-1.74805.27637-2.57617.27637-4.46289,0-6.34863-1.88672-6.34863-6.7168v-13.61816h-4.04883v-3.21973h4.04883v-5.65918h4.04785v5.65918h4.64648v3.21973h-4.64648v13.2041c0,2.66797.875,3.77246,3.2207,3.77246.59863,0,1.24219-.09277,1.65625-.23047Z" fill="#161b46"/><path d="M337.11503,105.64585h4.14062c-.78223,4.09375-4.32422,7.63672-10.30469,7.63672-6.90137,0-10.99609-5.01465-10.99609-12.65137,0-6.90137,4.04883-12.00781,10.85742-12.00781,5.29102,0,9.01758,3.12891,10.21387,8.14355.32129,1.33398.45996,2.99023.45996,5.01367h-17.48242c.18457,5.75098,3.12891,8.37305,6.94727,8.37305,3.4043,0,5.6123-1.88574,6.16406-4.50781ZM324.0496,98.69859h13.43359c-.41406-4.55469-3.08203-6.94629-6.6709-6.94629-3.72656,0-6.34863,2.4834-6.7627,6.94629Z" fill="#161b46"/><path d="M379.71269,98.19273v14.44531h-4.04785v-14.12305c0-4.69238-1.79395-6.44141-4.78516-6.44141-3.4043,0-5.52051,2.85254-5.52051,7.31543v13.24902h-4.04785v-14.72168c0-3.68066-1.74902-5.84277-4.73926-5.84277-3.4502,0-5.56641,2.89844-5.56641,7.59082v12.97363h-4.04785v-23.37012h3.91016v2.89844h.0918c1.65625-2.25488,3.81836-3.40527,6.5332-3.40527,3.21973,0,5.7041,1.51855,6.94629,4.41699,1.56445-2.80664,3.95703-4.41699,7.40723-4.41699,4.96875,0,7.86621,3.12891,7.86621,9.43164Z" fill="#161b46"/><path d="M403.1707,96.58238h-3.95703c0-3.12793-1.93164-4.83008-5.19824-4.83008-2.80664,0-4.55469,1.28809-4.55469,3.31152,0,2.43848,1.70215,2.85254,5.61328,3.77246,4.27832,1.05859,8.83301,2.02441,8.83301,7.45312,0,4.18652-3.58887,6.99316-9.24707,6.99316-6.11914,0-9.75391-2.94434-9.7998-8.41895h4.09473c0,3.3584,2.11621,5.19824,5.75098,5.19824,3.03613,0,5.06055-1.37988,5.06055-3.49609,0-2.71484-1.93262-3.2207-6.44141-4.32422-3.91016-.9668-7.91211-1.74902-7.91211-6.85547,0-4.00195,3.54199-6.7627,8.64844-6.7627,5.70508,0,9.10938,2.80664,9.10938,7.95898Z" fill="#161b46"/></svg>